<svg width="14" height="10" viewBox="0 0 14 10" fill="none" xmlns="http://www.w3.org/2000/svg">
<path d="M12.9967 1.46035C12.8441 0.885524 12.3943 0.432809 11.8231 0.279174C10.788 0 6.63704 0 6.63704 0C6.63704 0 2.48614 0 1.45094 0.279174C0.879837 0.432833 0.430038 0.885524 0.277375 1.46035C0 2.50226 0 4.6761 0 4.6761C0 4.6761 0 6.84994 0.277375 7.89184C0.430038 8.46667 0.879837 8.90053 1.45094 9.05416C2.48614 9.33333 6.63704 9.33333 6.63704 9.33333C6.63704 9.33333 10.7879 9.33333 11.8231 9.05416C12.3943 8.90053 12.8441 8.46667 12.9967 7.89184C13.2741 6.84994 13.2741 4.6761 13.2741 4.6761C13.2741 4.6761 13.2741 2.50226 12.9967 1.46035ZM5.27946 6.64978V2.70241L8.74881 4.67615L5.27946 6.64978Z" fill="white"/>
</svg>
