<svg width="380" height="91" viewBox="0 0 380 91" fill="none" xmlns="http://www.w3.org/2000/svg">
<path d="M47.5 20.3872V0H34.2302V0.0682421C33.8897 5.46312 29.3306 9.76468 23.8182 9.76468H23.75V20.3872H47.5Z" fill="white"/>
<path d="M47.5 20.3872V0H34.2302V0.0682421C33.8897 5.46312 29.3306 9.76468 23.8182 9.76468H23.75V20.3872H47.5Z" fill="white"/>
<path d="M0 9.76428V30.1546H13.2698C13.6103 24.7598 18.2376 20.39 23.75 20.39V9.76468L0 9.76428Z" fill="white"/>
<path d="M0 9.76428V30.1546H13.2698C13.6103 24.7598 18.2376 20.39 23.75 20.39V9.76468L0 9.76428Z" fill="white"/>
<path d="M47.5 50.556V30.1687H34.2302V30.237C33.8897 35.6319 29.3306 39.9334 23.8182 39.9334H23.75V50.556H47.5Z" fill="white"/>
<path d="M47.5 50.556V30.1687H34.2302V30.237C33.8897 35.6319 29.3306 39.9334 23.8182 39.9334H23.75V50.556H47.5Z" fill="white"/>
<path d="M0 39.9328V60.3231H13.2698C13.6103 54.9283 18.2376 50.5585 23.75 50.5585V39.9334L0 39.9328Z" fill="white"/>
<path d="M0 39.9328V60.3231H13.2698C13.6103 54.9283 18.2376 50.5585 23.75 50.5585V39.9334L0 39.9328Z" fill="white"/>
<path d="M47.5 80.7251V60.3379H34.2302V60.4061C33.8897 65.801 29.3306 70.1025 23.8182 70.1025H23.75V80.7251H47.5Z" fill="white"/>
<path d="M47.5 80.7251V60.3379H34.2302V60.4061C33.8897 65.801 29.3306 70.1025 23.8182 70.1025H23.75V80.7251H47.5Z" fill="white"/>
<path d="M0 70.1021V90.4925H13.2698C13.6103 85.0976 18.2376 80.7278 23.75 80.7278V70.1025L0 70.1021Z" fill="white"/>
<path d="M0 70.1021V90.4925H13.2698C13.6103 85.0976 18.2376 80.7278 23.75 80.7278V70.1025L0 70.1021Z" fill="white"/>
<path d="M190 20.3872V0H176.73V0.0682421C176.39 5.46312 171.831 9.76468 166.318 9.76468H166.25V20.3872H190Z" fill="white"/>
<path d="M190 20.3872V0H176.73V0.0682421C176.39 5.46312 171.831 9.76468 166.318 9.76468H166.25V20.3872H190Z" fill="white"/>
<path d="M142.5 9.76428V30.1546H155.77C156.11 24.7598 160.738 20.39 166.25 20.39V9.76468L142.5 9.76428Z" fill="white"/>
<path d="M142.5 9.76428V30.1546H155.77C156.11 24.7598 160.738 20.39 166.25 20.39V9.76468L142.5 9.76428Z" fill="white"/>
<path d="M190 50.556V30.1687H176.73V30.237C176.39 35.6319 171.831 39.9334 166.318 39.9334H166.25V50.556H190Z" fill="white"/>
<path d="M190 50.556V30.1687H176.73V30.237C176.39 35.6319 171.831 39.9334 166.318 39.9334H166.25V50.556H190Z" fill="white"/>
<path d="M142.5 39.9328V60.3231H155.77C156.11 54.9283 160.738 50.5585 166.25 50.5585V39.9334L142.5 39.9328Z" fill="white"/>
<path d="M142.5 39.9328V60.3231H155.77C156.11 54.9283 160.738 50.5585 166.25 50.5585V39.9334L142.5 39.9328Z" fill="white"/>
<path d="M190 80.7251V60.3379H176.73V60.4061C176.39 65.801 171.831 70.1025 166.318 70.1025H166.25V80.7251H190Z" fill="white"/>
<path d="M190 80.7251V60.3379H176.73V60.4061C176.39 65.801 171.831 70.1025 166.318 70.1025H166.25V80.7251H190Z" fill="white"/>
<path d="M142.5 70.1021V90.4925H155.77C156.11 85.0976 160.738 80.7278 166.25 80.7278V70.1025L142.5 70.1021Z" fill="white"/>
<path d="M142.5 70.1021V90.4925H155.77C156.11 85.0976 160.738 80.7278 166.25 80.7278V70.1025L142.5 70.1021Z" fill="white"/>
<path d="M95.0001 20.3872V0H81.7302V0.0682421C81.3898 5.46312 76.8306 9.76468 71.3182 9.76468H71.2501V20.3872H95.0001Z" fill="white"/>
<path d="M95.0001 20.3872V0H81.7302V0.0682421C81.3898 5.46312 76.8306 9.76468 71.3182 9.76468H71.2501V20.3872H95.0001Z" fill="white"/>
<path d="M47.5001 9.76428V30.1546H60.7699C61.1104 24.7598 65.7377 20.39 71.2501 20.39V9.76468L47.5001 9.76428Z" fill="white"/>
<path d="M47.5001 9.76428V30.1546H60.7699C61.1104 24.7598 65.7377 20.39 71.2501 20.39V9.76468L47.5001 9.76428Z" fill="white"/>
<path d="M95.0001 50.556V30.1687H81.7302V30.237C81.3898 35.6319 76.8306 39.9334 71.3182 39.9334H71.2501V50.556H95.0001Z" fill="white"/>
<path d="M95.0001 50.556V30.1687H81.7302V30.237C81.3898 35.6319 76.8306 39.9334 71.3182 39.9334H71.2501V50.556H95.0001Z" fill="white"/>
<path d="M47.5001 39.9328V60.3231H60.7699C61.1104 54.9283 65.7377 50.5585 71.2501 50.5585V39.9334L47.5001 39.9328Z" fill="white"/>
<path d="M47.5001 39.9328V60.3231H60.7699C61.1104 54.9283 65.7377 50.5585 71.2501 50.5585V39.9334L47.5001 39.9328Z" fill="white"/>
<path d="M95.0001 80.7251V60.3379H81.7302V60.4061C81.3898 65.801 76.8306 70.1025 71.3182 70.1025H71.2501V80.7251H95.0001Z" fill="white"/>
<path d="M95.0001 80.7251V60.3379H81.7302V60.4061C81.3898 65.801 76.8306 70.1025 71.3182 70.1025H71.2501V80.7251H95.0001Z" fill="white"/>
<path d="M47.5001 70.1021V90.4925H60.7699C61.1104 85.0976 65.7377 80.7278 71.2501 80.7278V70.1025L47.5001 70.1021Z" fill="white"/>
<path d="M47.5001 70.1021V90.4925H60.7699C61.1104 85.0976 65.7377 80.7278 71.2501 80.7278V70.1025L47.5001 70.1021Z" fill="white"/>
<path d="M237.5 20.3872V0H224.23V0.0682421C223.89 5.46312 219.331 9.76468 213.818 9.76468H213.75V20.3872H237.5Z" fill="white"/>
<path d="M237.5 20.3872V0H224.23V0.0682421C223.89 5.46312 219.331 9.76468 213.818 9.76468H213.75V20.3872H237.5Z" fill="white"/>
<path d="M190 9.76428V30.1546H203.27C203.61 24.7598 208.238 20.39 213.75 20.39V9.76468L190 9.76428Z" fill="white"/>
<path d="M190 9.76428V30.1546H203.27C203.61 24.7598 208.238 20.39 213.75 20.39V9.76468L190 9.76428Z" fill="white"/>
<path d="M237.5 50.556V30.1687H224.23V30.237C223.89 35.6319 219.331 39.9334 213.818 39.9334H213.75V50.556H237.5Z" fill="white"/>
<path d="M237.5 50.556V30.1687H224.23V30.237C223.89 35.6319 219.331 39.9334 213.818 39.9334H213.75V50.556H237.5Z" fill="white"/>
<path d="M190 39.9328V60.3231H203.27C203.61 54.9283 208.238 50.5585 213.75 50.5585V39.9334L190 39.9328Z" fill="white"/>
<path d="M190 39.9328V60.3231H203.27C203.61 54.9283 208.238 50.5585 213.75 50.5585V39.9334L190 39.9328Z" fill="white"/>
<path d="M237.5 80.7251V60.3379H224.23V60.4061C223.89 65.801 219.331 70.1025 213.818 70.1025H213.75V80.7251H237.5Z" fill="white"/>
<path d="M237.5 80.7251V60.3379H224.23V60.4061C223.89 65.801 219.331 70.1025 213.818 70.1025H213.75V80.7251H237.5Z" fill="white"/>
<path d="M190 70.1021V90.4925H203.27C203.61 85.0976 208.238 80.7278 213.75 80.7278V70.1025L190 70.1021Z" fill="white"/>
<path d="M190 70.1021V90.4925H203.27C203.61 85.0976 208.238 80.7278 213.75 80.7278V70.1025L190 70.1021Z" fill="white"/>
<path d="M142.5 20.3872V0H129.23V0.0682421C128.89 5.46312 124.331 9.76468 118.818 9.76468H118.75V20.3872H142.5Z" fill="white"/>
<path d="M142.5 20.3872V0H129.23V0.0682421C128.89 5.46312 124.331 9.76468 118.818 9.76468H118.75V20.3872H142.5Z" fill="white"/>
<path d="M95 9.76428V30.1546H108.27C108.61 24.7598 113.238 20.39 118.75 20.39V9.76468L95 9.76428Z" fill="white"/>
<path d="M95 9.76428V30.1546H108.27C108.61 24.7598 113.238 20.39 118.75 20.39V9.76468L95 9.76428Z" fill="white"/>
<path d="M142.5 50.556V30.1687H129.23V30.237C128.89 35.6319 124.331 39.9334 118.818 39.9334H118.75V50.556H142.5Z" fill="white"/>
<path d="M142.5 50.556V30.1687H129.23V30.237C128.89 35.6319 124.331 39.9334 118.818 39.9334H118.75V50.556H142.5Z" fill="white"/>
<path d="M95 39.9328V60.3231H108.27C108.61 54.9283 113.238 50.5585 118.75 50.5585V39.9334L95 39.9328Z" fill="white"/>
<path d="M95 39.9328V60.3231H108.27C108.61 54.9283 113.238 50.5585 118.75 50.5585V39.9334L95 39.9328Z" fill="white"/>
<path d="M142.5 80.7251V60.3379H129.23V60.4061C128.89 65.801 124.331 70.1025 118.818 70.1025H118.75V80.7251H142.5Z" fill="white"/>
<path d="M142.5 80.7251V60.3379H129.23V60.4061C128.89 65.801 124.331 70.1025 118.818 70.1025H118.75V80.7251H142.5Z" fill="white"/>
<path d="M95 70.1021V90.4925H108.27C108.61 85.0976 113.238 80.7278 118.75 80.7278V70.1025L95 70.1021Z" fill="white"/>
<path d="M95 70.1021V90.4925H108.27C108.61 85.0976 113.238 80.7278 118.75 80.7278V70.1025L95 70.1021Z" fill="white"/>
<path d="M285 20.3872V0H271.73V0.0682421C271.39 5.46312 266.831 9.76468 261.318 9.76468H261.25V20.3872H285Z" fill="white"/>
<path d="M285 20.3872V0H271.73V0.0682421C271.39 5.46312 266.831 9.76468 261.318 9.76468H261.25V20.3872H285Z" fill="white"/>
<path d="M237.5 9.76428V30.1546H250.77C251.11 24.7598 255.738 20.39 261.25 20.39V9.76468L237.5 9.76428Z" fill="white"/>
<path d="M237.5 9.76428V30.1546H250.77C251.11 24.7598 255.738 20.39 261.25 20.39V9.76468L237.5 9.76428Z" fill="white"/>
<path d="M332.5 20.3872V0H319.23V0.0682421C318.89 5.46312 314.331 9.76468 308.818 9.76468H308.75V20.3872H332.5Z" fill="white"/>
<path d="M332.5 20.3872V0H319.23V0.0682421C318.89 5.46312 314.331 9.76468 308.818 9.76468H308.75V20.3872H332.5Z" fill="white"/>
<path d="M285 9.76428V30.1546H298.27C298.61 24.7598 303.238 20.39 308.75 20.39V9.76468L285 9.76428Z" fill="white"/>
<path d="M285 9.76428V30.1546H298.27C298.61 24.7598 303.238 20.39 308.75 20.39V9.76468L285 9.76428Z" fill="white"/>
<path d="M285 50.5561V30.1688H271.73V30.2371C271.39 35.632 266.831 39.9335 261.318 39.9335H261.25V50.5561H285Z" fill="white"/>
<path d="M285 50.5561V30.1688H271.73V30.2371C271.39 35.632 266.831 39.9335 261.318 39.9335H261.25V50.5561H285Z" fill="white"/>
<path d="M237.5 39.9329V60.3232H250.77C251.11 54.9284 255.738 50.5586 261.25 50.5586V39.9335L237.5 39.9329Z" fill="white"/>
<path d="M237.5 39.9329V60.3232H250.77C251.11 54.9284 255.738 50.5586 261.25 50.5586V39.9335L237.5 39.9329Z" fill="white"/>
<path d="M332.5 50.5561V30.1688H319.23V30.2371C318.89 35.632 314.331 39.9335 308.818 39.9335H308.75V50.5561H332.5Z" fill="white"/>
<path d="M332.5 50.5561V30.1688H319.23V30.2371C318.89 35.632 314.331 39.9335 308.818 39.9335H308.75V50.5561H332.5Z" fill="white"/>
<path d="M285 39.9329V60.3232H298.27C298.61 54.9284 303.238 50.5586 308.75 50.5586V39.9335L285 39.9329Z" fill="white"/>
<path d="M285 39.9329V60.3232H298.27C298.61 54.9284 303.238 50.5586 308.75 50.5586V39.9335L285 39.9329Z" fill="white"/>
<path d="M285 80.7251V60.3379H271.73V60.4061C271.39 65.801 266.831 70.1025 261.318 70.1025H261.25V80.7251H285Z" fill="white"/>
<path d="M285 80.7251V60.3379H271.73V60.4061C271.39 65.801 266.831 70.1025 261.318 70.1025H261.25V80.7251H285Z" fill="white"/>
<path d="M237.5 70.1021V90.4925H250.77C251.11 85.0976 255.738 80.7278 261.25 80.7278V70.1025L237.5 70.1021Z" fill="white"/>
<path d="M237.5 70.1021V90.4925H250.77C251.11 85.0976 255.738 80.7278 261.25 80.7278V70.1025L237.5 70.1021Z" fill="white"/>
<path d="M379.5 20.3872V0H366.23V0.0682421C365.89 5.46312 361.331 9.76468 355.818 9.76468H355.75V20.3872H379.5Z" fill="white"/>
<path d="M379.5 20.3872V0H366.23V0.0682421C365.89 5.46312 361.331 9.76468 355.818 9.76468H355.75V20.3872H379.5Z" fill="white"/>
<path d="M332 9.76428V30.1546H345.27C345.61 24.7598 350.238 20.39 355.75 20.39V9.76468L332 9.76428Z" fill="white"/>
<path d="M332 9.76428V30.1546H345.27C345.61 24.7598 350.238 20.39 355.75 20.39V9.76468L332 9.76428Z" fill="white"/>
<path d="M379.5 50.5561V30.1688H366.23V30.2371C365.89 35.632 361.331 39.9335 355.818 39.9335H355.75V50.5561H379.5Z" fill="white"/>
<path d="M379.5 50.5561V30.1688H366.23V30.2371C365.89 35.632 361.331 39.9335 355.818 39.9335H355.75V50.5561H379.5Z" fill="white"/>
<path d="M332 39.9329V60.3232H345.27C345.61 54.9284 350.238 50.5586 355.75 50.5586V39.9335L332 39.9329Z" fill="white"/>
<path d="M332 39.9329V60.3232H345.27C345.61 54.9284 350.238 50.5586 355.75 50.5586V39.9335L332 39.9329Z" fill="white"/>
</svg>
