<svg width="20" height="18" viewBox="0 0 20 18" fill="none" xmlns="http://www.w3.org/2000/svg">
<path d="M18.3375 10.299L19.9789 3.18961C20.0974 2.6763 19.7011 2.1875 19.1664 2.1875H5.52805L5.20979 0.655909C5.13049 0.274155 4.78924 0 4.39336 0H0.833334C0.37309 0 0 0.367261 0 0.820312V1.36719C0 1.82024 0.37309 2.1875 0.833334 2.1875H3.25982L5.69899 13.926C5.11545 14.2564 4.72222 14.8757 4.72222 15.586C4.72222 16.643 5.59277 17.5 6.66666 17.5C7.74055 17.5 8.61111 16.643 8.61111 15.586C8.61111 15.0502 8.38726 14.5661 8.02695 14.2188H15.3064C14.9461 14.5661 14.7222 15.0502 14.7222 15.586C14.7222 16.643 15.5927 17.5 16.6666 17.5C17.7405 17.5 18.6111 16.643 18.6111 15.586C18.6111 14.8281 18.1636 14.1732 17.5146 13.8631L17.7061 13.0334C17.8246 12.52 17.4284 12.0312 16.8936 12.0312H7.57351L7.34625 10.9375H17.5249C17.914 10.9375 18.2512 10.6725 18.3375 10.299Z" fill="#9C9C9C"/>
</svg>
