<svg width="14" height="13" viewBox="0 0 14 13" fill="none" xmlns="http://www.w3.org/2000/svg">
<path d="M12.8403 1.15091C12.4787 0.786311 12.0485 0.496907 11.5745 0.299386C11.1005 0.101865 10.5921 0.000134718 10.0786 6.24137e-05C9.56511 -9.89079e-06 9.05667 0.101577 8.58262 0.298965C8.10856 0.496352 7.67827 0.785635 7.31657 1.15013L7.00001 1.46902L6.68346 1.15013C6.32175 0.785678 5.89148 0.496417 5.41746 0.299022C4.94344 0.101627 4.43504 0 3.92157 0C3.40809 0 2.89969 0.101627 2.42567 0.299022C1.95165 0.496417 1.52139 0.785678 1.15968 1.15013C0.790856 1.51957 0.49857 1.95817 0.299571 2.44079C0.100573 2.9234 -0.00122562 3.44054 1.11351e-05 3.96258C1.11351e-05 5.02424 0.412233 6.02213 1.15968 6.7758L6.66168 12.3066C6.70573 12.3517 6.75834 12.3876 6.81643 12.4122C6.87452 12.4368 6.93693 12.4495 7.00001 12.4497C7.06308 12.4495 7.12548 12.4367 7.18357 12.4121C7.24165 12.3876 7.29427 12.3517 7.33834 12.3066L12.8403 6.77658C13.2093 6.40692 13.5017 5.96807 13.7007 5.48518C13.8997 5.00229 14.0014 4.48486 14 3.96258C14.0014 3.44041 13.8997 2.92311 13.7007 2.44034C13.5017 1.95758 13.2093 1.51886 12.8403 1.14935V1.15091ZM12.1637 6.02213L7.00001 11.2122L1.83712 6.02213C1.56605 5.75209 1.35096 5.43118 1.20419 5.07782C1.05743 4.72446 0.981883 4.34559 0.981883 3.96296C0.981883 3.58034 1.05743 3.20147 1.20419 2.84811C1.35096 2.49475 1.56605 2.17384 1.83712 1.9038C2.1098 1.62833 2.43447 1.40976 2.79229 1.26075C3.15012 1.11175 3.53396 1.03529 3.92157 1.0358C4.67601 1.0358 5.43201 1.32513 6.00601 1.90458L6.66168 2.56335C6.70561 2.60865 6.7582 2.64467 6.81632 2.66926C6.87444 2.69386 6.9369 2.70653 7.00001 2.70653C7.06312 2.70653 7.12558 2.69386 7.1837 2.66926C7.24182 2.64467 7.29441 2.60865 7.33834 2.56335L7.99323 1.9038C8.26624 1.62864 8.59102 1.41024 8.94884 1.2612C9.30666 1.11216 9.69045 1.03543 10.0781 1.03543C10.4657 1.03543 10.8495 1.11216 11.2073 1.2612C11.5651 1.41024 11.8899 1.62864 12.1629 1.9038C12.4339 2.17389 12.6489 2.49482 12.7956 2.84817C12.9423 3.20153 13.0178 3.58037 13.0178 3.96296C13.0178 4.34556 12.9423 4.7244 12.7956 5.07776C12.6489 5.43111 12.4339 5.75204 12.1629 6.02213H12.1637Z" fill="#232B46"/>
</svg>
