<svg width="18" height="18" viewBox="0 0 18 18" fill="none" xmlns="http://www.w3.org/2000/svg">
<path fill-rule="evenodd" clip-rule="evenodd" d="M2.22222 7.77778C2.22234 6.8694 2.4452 5.97491 2.87128 5.17266C3.29736 4.3704 3.91366 3.68487 4.6662 3.1761C5.41873 2.66733 6.28454 2.35085 7.18778 2.25438C8.09102 2.15791 9.00414 2.2844 9.84715 2.62275C10.6902 2.96111 11.4373 3.50102 12.0232 4.19519C12.6091 4.88936 13.0159 5.71661 13.2079 6.60447C13.3998 7.49233 13.3712 8.41372 13.1244 9.28793C12.8776 10.1621 12.4202 10.9625 11.7922 11.6189C11.7282 11.6701 11.6701 11.7282 11.6189 11.7922C10.8325 12.5448 9.8424 13.0498 8.7715 13.2444C7.7006 13.4391 6.5961 13.315 5.59517 12.8873C4.59424 12.4597 3.74097 11.7475 3.14132 10.8391C2.54168 9.93074 2.22208 8.86623 2.22222 7.77778ZM12.4356 14.0067C10.8608 15.1843 8.89837 15.7216 6.94332 15.5107C4.98828 15.2997 3.18571 14.356 1.89839 12.8696C0.611068 11.3832 -0.0654467 9.46428 0.00499687 7.49915C0.0754405 5.53402 0.887614 3.66851 2.27806 2.27806C3.66851 0.887614 5.53402 0.0754405 7.49915 0.00499687C9.46428 -0.0654467 11.3832 0.611068 12.8696 1.89839C14.356 3.18571 15.2997 4.98828 15.5107 6.94332C15.7216 8.89837 15.1843 10.8608 14.0067 12.4356L16.8967 15.3244C16.9999 15.4276 17.0818 15.5501 17.1377 15.6849C17.1936 15.8197 17.2224 15.9642 17.2224 16.1102C17.2225 16.2561 17.1938 16.4006 17.138 16.5355C17.0822 16.6703 17.0004 16.7929 16.8972 16.8961C16.7941 16.9993 16.6716 17.0812 16.5368 17.1371C16.4019 17.193 16.2574 17.2218 16.1115 17.2219C15.9656 17.2219 15.821 17.1932 15.6862 17.1374C15.5513 17.0816 15.4288 16.9998 15.3256 16.8967L12.4367 14.0078L12.4356 14.0067Z" fill="#E3E3E3"/>
</svg>
