<svg width="14" height="13" viewBox="0 0 14 13" fill="none" xmlns="http://www.w3.org/2000/svg">
<path fill-rule="evenodd" clip-rule="evenodd" d="M0.649504 1.67465e-07C0.477245 1.67465e-07 0.312041 0.066273 0.190235 0.184239C0.0684297 0.302206 0 0.462203 0 0.629032C0 0.795862 0.0684297 0.955859 0.190235 1.07383C0.312041 1.19179 0.477245 1.25806 0.649504 1.25806H2.42655L2.89419 3.52258C2.89674 3.5398 2.9002 3.55687 2.90458 3.57374L3.86845 8.23781C3.95071 8.63899 4.17571 9.00034 4.50424 9.25736C4.83277 9.51438 5.244 9.65162 5.66627 9.64516H11.2667C11.689 9.65139 12.1001 9.51394 12.4285 9.25677C12.7568 8.99959 12.9816 8.639 13.0637 8.23781L13.0646 8.23361L13.9886 3.54187C14.0064 3.45093 14.0033 3.35729 13.9795 3.26765C13.9557 3.178 13.9117 3.09455 13.8507 3.02326C13.7898 2.95196 13.7133 2.89457 13.6268 2.85519C13.5403 2.81581 13.4459 2.7954 13.3503 2.79542H4.06849L3.59652 0.505742C3.56707 0.363056 3.48746 0.23467 3.37124 0.142453C3.25502 0.0502369 3.10938 -0.000105964 2.95914 1.67465e-07H0.649504ZM5.14234 7.9929L4.32829 4.05348H12.5657L11.7898 7.99542C11.7663 8.10762 11.7029 8.20828 11.6106 8.27985C11.5184 8.35143 11.4031 8.38938 11.2849 8.3871H5.64809C5.52953 8.38927 5.41397 8.35096 5.32166 8.27889C5.22934 8.20681 5.1653 8.10557 5.14234 7.9929ZM5.26791 11.8803C5.28697 11.8803 5.30526 11.873 5.31874 11.8599C5.33222 11.8469 5.33979 11.8292 5.33979 11.8107C5.33979 11.7922 5.33222 11.7745 5.31874 11.7615C5.30526 11.7484 5.28697 11.7411 5.26791 11.7411C5.24885 11.7411 5.23056 11.7484 5.21708 11.7615C5.2036 11.7745 5.19603 11.7922 5.19603 11.8107C5.19603 11.8292 5.2036 11.8469 5.21708 11.8599C5.23056 11.873 5.24885 11.8803 5.26791 11.8803ZM4.04078 11.8115C4.04078 11.6555 4.07252 11.5009 4.13419 11.3567C4.19586 11.2126 4.28625 11.0815 4.4002 10.9712C4.51415 10.8608 4.64943 10.7733 4.79831 10.7136C4.94719 10.6538 5.10676 10.6231 5.26791 10.6231C5.42906 10.6231 5.58863 10.6538 5.73751 10.7136C5.88639 10.7733 6.02167 10.8608 6.13562 10.9712C6.24957 11.0815 6.33996 11.2126 6.40163 11.3567C6.4633 11.5009 6.49504 11.6555 6.49504 11.8115C6.49504 12.1267 6.36575 12.429 6.13562 12.6519C5.90549 12.8748 5.59336 13 5.26791 13C4.94246 13 4.63033 12.8748 4.4002 12.6519C4.17007 12.429 4.04078 12.1267 4.04078 11.8115ZM11.6183 11.8812C11.6374 11.8812 11.6557 11.8738 11.6692 11.8608C11.6826 11.8477 11.6902 11.83 11.6902 11.8115C11.6902 11.7931 11.6826 11.7754 11.6692 11.7623C11.6557 11.7493 11.6374 11.7419 11.6183 11.7419C11.5993 11.7419 11.581 11.7493 11.5675 11.7623C11.554 11.7754 11.5464 11.7931 11.5464 11.8115C11.5464 11.83 11.554 11.8477 11.5675 11.8608C11.581 11.8738 11.5993 11.8812 11.6183 11.8812ZM10.3921 11.8115C10.3877 11.6529 10.4162 11.495 10.4759 11.3471C10.5356 11.1993 10.6253 11.0646 10.7396 10.9509C10.8539 10.8371 10.9906 10.7468 11.1416 10.685C11.2926 10.6233 11.4549 10.5915 11.6188 10.5915C11.7827 10.5915 11.9449 10.6233 12.0959 10.685C12.2469 10.7468 12.3836 10.8371 12.4979 10.9509C12.6123 11.0646 12.7019 11.1993 12.7616 11.3471C12.8213 11.495 12.8498 11.6529 12.8455 11.8115C12.837 12.1212 12.704 12.4153 12.4749 12.6314C12.2457 12.8475 11.9386 12.9684 11.6188 12.9684C11.2989 12.9684 10.9918 12.8475 10.7626 12.6314C10.5335 12.4153 10.4006 12.1212 10.3921 11.8115Z" fill="#232B46"/>
</svg>
