<svg width="14" height="14" viewBox="0 0 14 14" fill="none" xmlns="http://www.w3.org/2000/svg">
<path d="M13.2589 10.242V12.242C13.2598 12.4277 13.2219 12.6116 13.1475 12.7819C13.0732 12.9521 12.964 13.1049 12.8271 13.2304C12.6901 13.356 12.5285 13.4515 12.3524 13.5108C12.1764 13.5701 11.9899 13.592 11.8049 13.575C9.75356 13.3519 7.78312 12.6508 6.05192 11.528C4.44114 10.5044 3.07548 9.13877 2.05192 7.52799C0.925114 5.78882 0.223841 3.80868 0.0049242 1.74799C-0.0117407 1.56362 0.0101784 1.3778 0.0692851 1.20237C0.128392 1.02694 0.22339 0.865747 0.348228 0.729056C0.473066 0.592365 0.625006 0.483174 0.794369 0.40844C0.963733 0.333706 1.14681 0.295067 1.33192 0.294986H3.33192C3.65547 0.291822 3.96913 0.406451 4.21439 0.617493C4.45966 0.828536 4.61979 1.12158 4.66492 1.44199C4.74947 2.08193 4.90613 2.71026 5.13192 3.31499C5.22173 3.55364 5.2412 3.81304 5.18803 4.06243C5.13485 4.31182 5.01127 4.54072 4.83192 4.72199L3.98492 5.56799C4.93397 7.23701 6.3159 8.61894 7.98492 9.56799L8.83192 8.72199C9.01319 8.54264 9.24209 8.41906 9.49148 8.36588C9.74087 8.31271 10.0003 8.33218 10.2389 8.42199C10.8437 8.64743 11.472 8.80376 12.1119 8.88799C12.436 8.93354 12.7319 9.0967 12.9435 9.34639C13.155 9.59608 13.2673 9.91485 13.2589 10.242Z" fill="#4C52A3"/>
</svg>
