<svg width="16" height="20" viewBox="0 0 16 20" fill="none" xmlns="http://www.w3.org/2000/svg">
<path d="M8 11C9.65685 11 11 9.65685 11 8C11 6.34315 9.65685 5 8 5C6.34315 5 5 6.34315 5 8C5 9.65685 6.34315 11 8 11Z" stroke="#009AC8" stroke-linecap="round" stroke-linejoin="round"/>
<path d="M15 8.2C15 13.6 8 19 8 19C8 19 1 13.6 1 8.2C1 6.29044 1.7375 4.45909 3.05025 3.10883C4.36301 1.75857 6.14348 1 8 1C9.85652 1 11.637 1.75857 12.9497 3.10883C14.2625 4.45909 15 6.29044 15 8.2Z" stroke="#009AC8" stroke-linecap="round" stroke-linejoin="round"/>
</svg>
