<svg width="11" height="13" viewBox="0 0 11 13" fill="none" xmlns="http://www.w3.org/2000/svg">
<path d="M1.23214 13V10.8776H0V9.58892H1.23214V8.01604H0V6.4621H1.23214V0H7.23214C8.07738 0 8.77381 0.170554 9.32143 0.511662C9.88095 0.840136 10.2976 1.30126 10.5714 1.89504C10.8571 2.48882 11 3.17736 11 3.96064C11 4.75656 10.8452 5.46404 10.5357 6.08309C10.2262 6.68951 9.78571 7.16327 9.21428 7.50437C8.65476 7.84548 7.98809 8.01604 7.21428 8.01604H2.92857V9.58892H6.67857V10.8776H2.92857V13H1.23214ZM2.92857 6.4621H7.10714C7.77381 6.4621 8.30357 6.24101 8.69643 5.79883C9.08928 5.35666 9.28571 4.75024 9.28571 3.97959C9.28571 3.46161 9.20238 3.02575 9.03571 2.67201C8.88095 2.31827 8.64286 2.04665 8.32143 1.85714C8 1.65501 7.59524 1.55394 7.10714 1.55394H2.92857V6.4621Z" fill="#333333"/>
</svg>
