<svg width="18" height="18" viewBox="0 0 18 18" fill="none" xmlns="http://www.w3.org/2000/svg">
<path d="M10.7778 1.88889H17M10.7778 6.33333H17M10.7778 11.6667H17M10.7778 16.1111H17M1.88889 1H6.33333C6.82425 1 7.22222 1.39797 7.22222 1.88889V6.33333C7.22222 6.82425 6.82425 7.22222 6.33333 7.22222H1.88889C1.39797 7.22222 1 6.82425 1 6.33333V1.88889C1 1.39797 1.39797 1 1.88889 1ZM1.88889 10.7778H6.33333C6.82425 10.7778 7.22222 11.1757 7.22222 11.6667V16.1111C7.22222 16.602 6.82425 17 6.33333 17H1.88889C1.39797 17 1 16.602 1 16.1111V11.6667C1 11.1757 1.39797 10.7778 1.88889 10.7778Z" stroke="#009AC8" stroke-linecap="round" stroke-linejoin="round"/>
</svg>
