<svg width="133" height="51" viewBox="0 0 133 51" fill="none" xmlns="http://www.w3.org/2000/svg">
<mask id="mask0_2018_3126" style="mask-type:luminance" maskUnits="userSpaceOnUse" x="0" y="0" width="133" height="51">
<path d="M133 0H0V51H133V0Z" fill="white"/>
</mask>
<g mask="url(#mask0_2018_3126)">
<path d="M41.5859 18.7048C41.5569 17.182 42.1083 15.889 43.2402 14.7685C44.3718 13.6766 45.7069 13.1307 47.2447 13.1594C49.2473 13.1594 50.7562 13.9927 51.7722 15.6304L50.1469 16.8947C49.3922 15.8028 48.4349 15.2856 47.274 15.2856C46.3162 15.2856 45.5038 15.6304 44.8651 16.2913C44.2269 16.9521 43.9074 17.7566 43.9074 18.7335C43.9074 19.7104 44.2269 20.5437 44.8651 21.2045C45.5038 21.8654 46.3162 22.2101 47.274 22.2101C48.4056 22.2101 49.3633 21.6642 50.1469 20.6011L51.7722 21.8366C51.2789 22.6124 50.6691 23.2158 49.8856 23.6468C49.102 24.0778 48.2318 24.3076 47.274 24.3076C45.678 24.3076 44.3429 23.7617 43.2402 22.6986C42.1373 21.578 41.5859 20.2563 41.5859 18.7048Z" fill="#232B46"/>
<path d="M53.2233 18.7048C53.194 17.182 53.7456 15.889 54.8775 14.7685C56.0091 13.6766 57.3442 13.1307 58.882 13.1594C60.4491 13.1307 61.7842 13.6766 62.9158 14.7685C64.0478 15.889 64.5993 17.182 64.57 18.6761C64.5993 20.1989 64.0478 21.4918 62.9158 22.6124C61.7842 23.733 60.4202 24.2501 58.882 24.2214C57.3442 24.2501 56.0091 23.7042 54.8775 22.5837C53.7167 21.5206 53.194 20.2276 53.2233 18.7048ZM62.2193 18.7335C62.2193 17.7566 61.9002 16.9234 61.262 16.2625C60.6233 15.6017 59.8398 15.2569 58.9113 15.2569C57.9535 15.2569 57.17 15.6017 56.5313 16.2625C55.8931 16.9234 55.574 17.7566 55.574 18.7335C55.574 19.7104 55.8931 20.5437 56.5313 21.1758C57.17 21.8366 57.9535 22.1527 58.9113 22.1527C59.8687 22.1527 60.6522 21.8079 61.2909 21.1471C61.8713 20.5149 62.2193 19.7104 62.2193 18.7335Z" fill="#232B46"/>
<path d="M82.6207 17.3831V24.0203H80.2994V17.6992C80.2994 16.9521 80.0963 16.3487 79.69 15.9178C79.2834 15.458 78.7612 15.2569 78.0647 15.2569C77.3683 15.2569 76.7878 15.4868 76.3523 15.9178C75.9172 16.3487 75.6852 16.9234 75.6852 17.613V24.0203H73.4216V17.6992C73.4216 16.9521 73.2185 16.3775 72.8118 15.9178C72.4056 15.458 71.8545 15.2282 71.1869 15.2282C70.4905 15.2282 69.9101 15.458 69.4745 15.9178C69.0394 16.3775 68.8074 16.9521 68.8074 17.6992V24.0203H66.5145V13.418H68.6621V14.4237C69.4745 13.5904 70.4905 13.1882 71.7674 13.1882C73.2474 13.1882 74.3501 13.7341 75.0176 14.8547C75.8883 13.7341 77.078 13.1882 78.6451 13.1882C79.8638 13.1882 80.8216 13.5617 81.5469 14.3375C82.2727 15.1133 82.6207 16.1189 82.6207 17.3831Z" fill="#232B46"/>
<path d="M96.7244 18.7048C96.7244 20.2851 96.2311 21.6068 95.2155 22.6699C94.2284 23.733 92.9515 24.2502 91.4426 24.2502C89.9626 24.2502 88.7729 23.733 87.8733 22.7273V27.9279H85.5804V13.418H87.728V14.9121C88.5404 13.7628 89.7884 13.1882 91.4715 13.1882C92.9809 13.1882 94.2284 13.7054 95.2444 14.7685C96.2311 15.8316 96.7244 17.1533 96.7244 18.7048ZM93.416 21.2333C94.0546 20.5724 94.3448 19.7679 94.3448 18.7335C94.3448 17.7279 94.0253 16.8947 93.416 16.2338C92.7777 15.573 92.0231 15.2569 91.0653 15.2569C90.1658 15.2569 89.4111 15.573 88.7729 16.1764C88.1342 16.7797 87.844 17.6417 87.844 18.7335C87.844 19.8541 88.1635 20.6873 88.7729 21.3194C89.4111 21.9228 90.1658 22.2389 91.0653 22.2389C92.0231 22.1814 92.8066 21.8654 93.416 21.2333Z" fill="#232B46"/>
<path d="M107.897 17.613V24.0203H105.75V22.8423C104.937 23.7904 103.805 24.2789 102.325 24.2789C101.194 24.2789 100.294 23.9916 99.6267 23.4456C98.9303 22.871 98.6107 22.1527 98.6107 21.2333C98.6107 20.3138 98.9591 19.5668 99.6845 19.0209C100.41 18.4749 101.368 18.1876 102.558 18.1876H105.605V17.498C105.605 16.751 105.402 16.2051 104.995 15.8028C104.589 15.4006 104.038 15.2282 103.312 15.2282C102.209 15.2282 101.223 15.7454 100.352 16.8085L99.0169 15.458C100.062 13.9352 101.571 13.1882 103.544 13.1882C104.879 13.1882 105.953 13.5904 106.736 14.3662C107.491 15.1133 107.897 16.2051 107.897 17.613ZM105.576 19.9978V19.8254H102.819C101.542 19.8254 100.932 20.2563 100.932 21.1183C100.932 21.5493 101.107 21.8941 101.455 22.1527C101.803 22.4113 102.238 22.5262 102.819 22.5262C103.602 22.5262 104.27 22.2963 104.792 21.8079C105.315 21.3194 105.576 20.7448 105.576 19.9978Z" fill="#232B46"/>
<path d="M120.231 17.3831V24.0203H117.938V17.6992C117.938 16.9521 117.735 16.3775 117.3 15.9178C116.865 15.458 116.313 15.2282 115.617 15.2282C114.891 15.2282 114.311 15.458 113.846 15.9178C113.382 16.3775 113.15 16.9809 113.15 17.6992V24.0203H110.857V13.418H113.005V14.4524C113.817 13.5904 114.891 13.1882 116.226 13.1882C117.474 13.1882 118.432 13.5617 119.157 14.3375C119.853 15.0845 120.231 16.1189 120.231 17.3831Z" fill="#232B46"/>
<path d="M130.446 13.418H132.884L127.66 25.2558C127.196 26.2614 126.673 27.0085 126.035 27.4682C125.397 27.9279 124.642 28.1578 123.713 28.1578C123.104 28.1578 122.524 28.0716 121.943 27.9279V26.0028C122.553 26.0603 122.959 26.089 123.22 26.089C124.323 26.089 125.106 25.5718 125.571 24.5375L126.006 23.5318L121.74 13.3893H124.207L127.283 21.1183L130.446 13.418Z" fill="#232B46"/>
<path d="M41.5859 18.7048C41.5569 17.182 42.1083 15.889 43.2402 14.7685C44.3718 13.6766 45.7069 13.1307 47.2447 13.1594C49.2473 13.1594 50.7562 13.9927 51.7722 15.6304L50.1469 16.8947C49.3922 15.8028 48.4349 15.2856 47.274 15.2856C46.3162 15.2856 45.5038 15.6304 44.8651 16.2913C44.2269 16.9521 43.9074 17.7566 43.9074 18.7335C43.9074 19.7104 44.2269 20.5437 44.8651 21.2045C45.5038 21.8654 46.3162 22.2101 47.274 22.2101C48.4056 22.2101 49.3633 21.6642 50.1469 20.6011L51.7722 21.8366C51.2789 22.6124 50.6691 23.2158 49.8856 23.6468C49.102 24.0778 48.2318 24.3076 47.274 24.3076C45.678 24.3076 44.3429 23.7617 43.2402 22.6986C42.1373 21.578 41.5859 20.2563 41.5859 18.7048Z" stroke="#232B46" stroke-width="0.312971" stroke-miterlimit="10"/>
<path d="M53.2233 18.7048C53.194 17.182 53.7456 15.889 54.8775 14.7685C56.0091 13.6766 57.3442 13.1307 58.882 13.1594C60.4491 13.1307 61.7842 13.6766 62.9158 14.7685C64.0478 15.889 64.5993 17.182 64.57 18.6761C64.5993 20.1989 64.0478 21.4918 62.9158 22.6124C61.7842 23.733 60.4202 24.2501 58.882 24.2214C57.3442 24.2501 56.0091 23.7042 54.8775 22.5837C53.7167 21.5206 53.194 20.2276 53.2233 18.7048ZM62.2193 18.7335C62.2193 17.7566 61.9002 16.9234 61.262 16.2625C60.6233 15.6017 59.8398 15.2569 58.9113 15.2569C57.9535 15.2569 57.17 15.6017 56.5313 16.2625C55.8931 16.9234 55.574 17.7566 55.574 18.7335C55.574 19.7104 55.8931 20.5437 56.5313 21.1758C57.17 21.8366 57.9535 22.1527 58.9113 22.1527C59.8687 22.1527 60.6522 21.8079 61.2909 21.1471C61.8713 20.5149 62.2193 19.7104 62.2193 18.7335Z" stroke="#232B46" stroke-width="0.312971" stroke-miterlimit="10"/>
<path d="M82.6207 17.3831V24.0203H80.2994V17.6992C80.2994 16.9521 80.0963 16.3487 79.69 15.9178C79.2834 15.458 78.7612 15.2569 78.0647 15.2569C77.3683 15.2569 76.7878 15.4868 76.3523 15.9178C75.9172 16.3487 75.6852 16.9234 75.6852 17.613V24.0203H73.4216V17.6992C73.4216 16.9521 73.2185 16.3775 72.8118 15.9178C72.4056 15.458 71.8545 15.2282 71.1869 15.2282C70.4905 15.2282 69.9101 15.458 69.4745 15.9178C69.0394 16.3775 68.8074 16.9521 68.8074 17.6992V24.0203H66.5145V13.418H68.6621V14.4237C69.4745 13.5904 70.4905 13.1882 71.7674 13.1882C73.2474 13.1882 74.3501 13.7341 75.0176 14.8547C75.8883 13.7341 77.078 13.1882 78.6451 13.1882C79.8638 13.1882 80.8216 13.5617 81.5469 14.3375C82.2727 15.1133 82.6207 16.1189 82.6207 17.3831Z" stroke="#232B46" stroke-width="0.312971" stroke-miterlimit="10"/>
<path d="M96.7244 18.7048C96.7244 20.2851 96.2311 21.6068 95.2155 22.6699C94.2284 23.733 92.9515 24.2502 91.4426 24.2502C89.9626 24.2502 88.7729 23.733 87.8733 22.7273V27.9279H85.5804V13.418H87.728V14.9121C88.5404 13.7628 89.7884 13.1882 91.4715 13.1882C92.9809 13.1882 94.2284 13.7054 95.2444 14.7685C96.2311 15.8316 96.7244 17.1533 96.7244 18.7048ZM93.416 21.2333C94.0546 20.5724 94.3448 19.7679 94.3448 18.7335C94.3448 17.7279 94.0253 16.8947 93.416 16.2338C92.7777 15.573 92.0231 15.2569 91.0653 15.2569C90.1658 15.2569 89.4111 15.573 88.7729 16.1764C88.1342 16.7797 87.844 17.6417 87.844 18.7335C87.844 19.8541 88.1635 20.6873 88.7729 21.3194C89.4111 21.9228 90.1658 22.2389 91.0653 22.2389C92.0231 22.1814 92.8066 21.8654 93.416 21.2333Z" stroke="#232B46" stroke-width="0.312971" stroke-miterlimit="10"/>
<path d="M107.897 17.613V24.0203H105.75V22.8423C104.937 23.7904 103.805 24.2789 102.325 24.2789C101.194 24.2789 100.294 23.9916 99.6267 23.4456C98.9303 22.871 98.6107 22.1527 98.6107 21.2333C98.6107 20.3138 98.9591 19.5668 99.6845 19.0209C100.41 18.4749 101.368 18.1876 102.558 18.1876H105.605V17.498C105.605 16.751 105.402 16.2051 104.995 15.8028C104.589 15.4006 104.038 15.2282 103.312 15.2282C102.209 15.2282 101.223 15.7454 100.352 16.8085L99.0169 15.458C100.062 13.9352 101.571 13.1882 103.544 13.1882C104.879 13.1882 105.953 13.5904 106.736 14.3662C107.491 15.1133 107.897 16.2051 107.897 17.613ZM105.576 19.9978V19.8254H102.819C101.542 19.8254 100.932 20.2563 100.932 21.1183C100.932 21.5493 101.107 21.8941 101.455 22.1527C101.803 22.4113 102.238 22.5262 102.819 22.5262C103.602 22.5262 104.27 22.2963 104.792 21.8079C105.315 21.3194 105.576 20.7448 105.576 19.9978Z" stroke="#232B46" stroke-width="0.312971" stroke-miterlimit="10"/>
<path d="M120.231 17.3831V24.0203H117.938V17.6992C117.938 16.9521 117.735 16.3775 117.3 15.9178C116.865 15.458 116.313 15.2282 115.617 15.2282C114.891 15.2282 114.311 15.458 113.846 15.9178C113.382 16.3775 113.15 16.9809 113.15 17.6992V24.0203H110.857V13.418H113.005V14.4524C113.817 13.5904 114.891 13.1882 116.226 13.1882C117.474 13.1882 118.432 13.5617 119.157 14.3375C119.853 15.0845 120.231 16.1189 120.231 17.3831Z" stroke="#232B46" stroke-width="0.312971" stroke-miterlimit="10"/>
<path d="M130.446 13.418H132.884L127.66 25.2558C127.196 26.2614 126.673 27.0085 126.035 27.4682C125.397 27.9279 124.642 28.1578 123.713 28.1578C123.104 28.1578 122.524 28.0716 121.943 27.9279V26.0028C122.553 26.0603 122.959 26.089 123.22 26.089C124.323 26.089 125.106 25.5718 125.571 24.5375L126.006 23.5318L121.74 13.3893H124.207L127.283 21.1183L130.446 13.418Z" stroke="#232B46" stroke-width="0.312971" stroke-miterlimit="10"/>
<path d="M18.0455 0V5.9253H24.9409V10.4061H18.0455V16.7736C18.0455 17.8938 18.2509 18.8077 18.691 19.4857C19.1018 20.1637 19.9528 20.488 21.2438 20.488C21.86 20.488 22.5055 20.429 23.151 20.3406C23.7966 20.2522 24.4128 20.0753 24.9409 19.8984L25.7332 24.1139C25.029 24.3792 24.2661 24.615 23.4151 24.7919C22.5642 24.9983 21.5372 25.0867 20.3048 25.0867C18.7497 25.0867 17.4586 24.8804 16.4317 24.4971C15.4047 24.0845 14.5831 23.5538 13.9669 22.8169C13.3507 22.0799 12.9106 21.225 12.6759 20.2227C12.4411 19.2204 12.3238 18.0707 12.3238 16.862V8.75529H7.80505V4.21551H7.83439C10.2111 4.21551 12.1771 2.35833 12.3238 0.0294791C12.3238 0.0294791 12.3238 0.0294791 12.3238 0H0V51.2348H32.9221V0H18.0455Z" fill="#009AC8"/>
<path d="M42.0795 36.1168V32.008H45.5327V36.1168H44.6328V32.8413H43.0081V36.1168H42.0795Z" fill="#009AC8"/>
<path d="M46.52 36.1168V32.008H48.2029C48.6962 32.008 49.0735 32.1517 49.3637 32.4103C49.6535 32.6689 49.7988 33.0137 49.7988 33.4446C49.7988 33.9044 49.6535 34.2491 49.3344 34.5077C49.0153 34.7663 48.6091 34.8813 48.1447 34.8813H47.4484V36.1168H46.52ZM47.4484 34.0767H48.1736C48.406 34.0767 48.5802 34.0193 48.6962 33.9044C48.8122 33.7894 48.8993 33.6458 48.8993 33.4446C48.8993 33.2435 48.8411 33.0998 48.6962 32.9849C48.5802 32.87 48.3767 32.8125 48.1447 32.8125H47.4484V34.0767Z" fill="#009AC8"/>
<path d="M54.0643 35.5708C53.6581 35.9731 53.1066 36.1742 52.4974 36.1742C51.8881 36.1742 51.3366 35.9731 50.9304 35.5708C50.5243 35.1686 50.3212 34.6514 50.3212 34.0767C50.3212 33.5021 50.5243 32.9849 50.9593 32.5826C51.3655 32.1804 51.917 31.9793 52.5263 31.9793C53.1648 31.9793 53.687 32.1804 54.0932 32.5826C54.4994 32.9849 54.7025 33.5021 54.7025 34.0767C54.7025 34.6514 54.4705 35.1398 54.0643 35.5708ZM51.5979 34.9674C51.8299 35.226 52.1201 35.341 52.4974 35.341C52.8458 35.341 53.1648 35.226 53.3968 34.9674C53.6292 34.7088 53.7452 34.4215 53.7452 34.048C53.7452 33.7032 53.6292 33.3872 53.3968 33.1286C53.1648 32.87 52.8747 32.755 52.4974 32.755C52.1201 32.755 51.8299 32.87 51.5979 33.1286C51.3655 33.3872 51.2495 33.6745 51.2495 34.048C51.2495 34.4215 51.3655 34.7376 51.5979 34.9674Z" fill="#009AC8"/>
<path d="M58.2142 36.2603H57.3147V35.8293C56.6766 35.8293 56.1833 35.6569 55.806 35.3121C55.4287 34.9674 55.2545 34.5364 55.2545 34.0192C55.2545 33.502 55.4287 33.071 55.806 32.7262C56.1833 32.3814 56.6766 32.2378 57.3147 32.2378V31.8643H58.2142V32.2378C58.8239 32.2378 59.346 32.4102 59.694 32.7262C60.0713 33.071 60.2455 33.4733 60.2455 34.0192C60.2455 34.5364 60.0713 34.9674 59.694 35.3121C59.3172 35.6569 58.8239 35.8293 58.1853 35.8293V36.2603H58.2142ZM57.3147 35.0248V33.0423C56.9668 33.0423 56.7055 33.1285 56.5024 33.3009C56.2993 33.4733 56.1833 33.7319 56.1833 34.0192C56.1833 34.3352 56.2993 34.5651 56.5024 34.7375C56.7055 34.9386 56.9668 35.0248 57.3147 35.0248ZM58.2142 33.0423V35.0248C58.5626 35.0248 58.8239 34.9386 59.027 34.7662C59.2301 34.5938 59.3172 34.3352 59.3172 34.0479C59.3172 33.7606 59.2301 33.502 59.027 33.3296C58.8239 33.1285 58.5337 33.0423 58.2142 33.0423Z" fill="#009AC8"/>
<path d="M61.0011 36.1168V32.008H64.135V32.8125H61.9294V33.6458H63.8737V34.4503H61.9294V35.3122H64.1639V36.1168H61.0011Z" fill="#009AC8"/>
<path d="M66.7759 36.1742C66.1662 36.1742 65.6729 35.9731 65.2667 35.5708C64.8606 35.1686 64.6575 34.6514 64.6575 34.0767C64.6575 33.4733 64.8606 32.9849 65.2667 32.5826C65.6729 32.1804 66.1955 31.9793 66.8048 31.9793C67.1532 31.9793 67.4723 32.0367 67.7042 32.1517C67.9366 32.2666 68.1686 32.439 68.4006 32.6401L67.8495 33.2722C67.6753 33.0998 67.5012 32.9849 67.3563 32.9274C67.211 32.87 67.0079 32.8125 66.8048 32.8125C66.4564 32.8125 66.1662 32.9274 65.9342 33.186C65.7022 33.4446 65.5862 33.7319 65.5862 34.1055C65.5862 34.4502 65.7022 34.7663 65.9342 35.0249C66.1662 35.2835 66.4564 35.3984 66.8048 35.3984C67.0368 35.3984 67.211 35.3697 67.3852 35.2835C67.5594 35.1973 67.7042 35.0824 67.9073 34.91L68.4877 35.5133C68.2557 35.7432 68.0233 35.9156 67.7624 36.0305C67.5011 36.1167 67.1532 36.1742 66.7759 36.1742Z" fill="#009AC8"/>
<path d="M71.0124 36.1742C70.4031 36.1742 69.9099 35.9731 69.5037 35.5708C69.0975 35.1686 68.8944 34.6514 68.8944 34.0767C68.8944 33.4733 69.0975 32.9849 69.5037 32.5826C69.9099 32.1804 70.432 31.9793 71.0417 31.9793C71.3897 31.9793 71.7088 32.0367 71.9412 32.1517C72.1732 32.2666 72.4056 32.439 72.6376 32.6401L72.0861 33.2722C71.9123 33.0998 71.7381 32.9849 71.5928 32.9274C71.4479 32.87 71.2448 32.8125 71.0417 32.8125C70.6933 32.8125 70.4031 32.9274 70.1712 33.186C69.9388 33.4446 69.8228 33.7319 69.8228 34.1055C69.8228 34.4502 69.9388 34.7663 70.1712 35.0249C70.4031 35.2835 70.6933 35.3984 71.0417 35.3984C71.2737 35.3984 71.4479 35.3697 71.6221 35.2835C71.7959 35.1973 71.9412 35.0824 72.1443 34.91L72.7246 35.5133C72.4922 35.7432 72.2603 35.9156 71.999 36.0305C71.7381 36.1167 71.419 36.1742 71.0124 36.1742Z" fill="#009AC8"/>
<path d="M77.0197 32.008V36.1168H76.1202V33.4446L74.3209 36.1168H73.4503V32.008H74.3502V34.6801L76.178 32.008H77.0197Z" fill="#009AC8"/>
<path d="M81.5757 35.5708C81.1695 35.9731 80.618 36.1742 80.0087 36.1742C79.3995 36.1742 78.848 35.9731 78.4418 35.5708C78.0356 35.1686 77.8325 34.6514 77.8325 34.0767C77.8325 33.5021 78.0356 32.9849 78.4707 32.5826C78.8773 32.1804 79.4283 31.9793 80.0376 31.9793C80.6762 31.9793 81.1984 32.1804 81.6046 32.5826C82.0112 32.9849 82.2142 33.5021 82.2142 34.0767C82.2142 34.6514 82.0112 35.1398 81.5757 35.5708ZM79.1382 34.9674C79.3706 35.226 79.6608 35.341 80.0376 35.341C80.386 35.341 80.7051 35.226 80.9375 34.9674C81.1695 34.7088 81.2855 34.4215 81.2855 34.048C81.2855 33.7032 81.1695 33.3872 80.9375 33.1286C80.7051 32.87 80.4149 32.755 80.0376 32.755C79.6608 32.755 79.3706 32.87 79.1382 33.1286C78.9062 33.3872 78.7902 33.6745 78.7902 34.048C78.7609 34.4215 78.8773 34.7376 79.1382 34.9674Z" fill="#009AC8"/>
<path d="M83.0273 36.1168V32.008H83.9268V33.617H85.6097V32.008H86.5092V36.1168H85.6097V34.479H83.9268V36.1168H83.0273Z" fill="#009AC8"/>
<path d="M87.1482 36.1167L88.9182 31.9793H89.7595L91.5295 36.1167H90.5722L90.195 35.1973H88.4538L88.0765 36.1167H87.1482ZM88.8022 34.3928H89.9048L89.3533 33.0711L88.8022 34.3928Z" fill="#009AC8"/>
<path d="M92.7201 32.008H95.6798V36.1167H94.7803V32.8413H93.5907V33.1573C93.5907 33.9618 93.5325 34.5652 93.4454 35.0249C93.3583 35.4559 93.2134 35.772 93.0103 35.9444C92.8361 36.1167 92.5748 36.2029 92.2268 36.2029C92.0526 36.2029 91.8784 36.1742 91.7625 36.1455L91.8207 35.3984C91.8784 35.3984 91.9366 35.3984 91.9655 35.3984C92.1108 35.3984 92.1979 35.3697 92.2846 35.3122C92.3717 35.2548 92.4588 35.1398 92.517 34.9674C92.6041 34.7951 92.633 34.5365 92.6619 34.1917C92.6912 33.8469 92.7201 33.4159 92.7201 32.87V32.008Z" fill="#009AC8"/>
<path d="M96.6667 36.1168V32.008H97.5662V33.3872H98.4368C98.9012 33.3872 99.2784 33.5021 99.5393 33.7607C99.8006 33.9906 99.9459 34.3353 99.9459 34.7376C99.9459 35.1686 99.8006 35.4846 99.5104 35.7432C99.2202 36.0018 98.843 36.1168 98.3497 36.1168H96.6667ZM98.379 34.1917H97.5662V35.3122H98.379C98.843 35.3122 99.046 35.1111 99.046 34.7376C99.0754 34.3641 98.843 34.1917 98.379 34.1917Z" fill="#009AC8"/>
<path d="M100.671 36.1168V32.008H101.571V33.617H103.254V32.008H104.153V36.1168H103.254V34.479H101.571V36.1168H100.671Z" fill="#009AC8"/>
<path d="M108.739 35.5708C108.333 35.9731 107.781 36.1742 107.172 36.1742C106.563 36.1742 106.011 35.9731 105.605 35.5708C105.199 35.1686 104.996 34.6514 104.996 34.0767C104.996 33.5021 105.199 32.9849 105.634 32.5826C106.04 32.1804 106.591 31.9793 107.201 31.9793C107.839 31.9793 108.361 32.1804 108.768 32.5826C109.174 32.9849 109.377 33.5021 109.377 34.0767C109.377 34.6514 109.174 35.1398 108.739 35.5708ZM106.301 34.9674C106.533 35.226 106.823 35.341 107.201 35.341C107.549 35.341 107.868 35.226 108.1 34.9674C108.333 34.7088 108.449 34.4215 108.449 34.048C108.449 33.7032 108.333 33.3872 108.1 33.1286C107.868 32.87 107.578 32.755 107.201 32.755C106.823 32.755 106.533 32.87 106.301 33.1286C106.069 33.3872 105.953 33.6745 105.953 34.048C105.924 34.4215 106.069 34.7376 106.301 34.9674Z" fill="#009AC8"/>
<path d="M110.19 36.1168V32.008H113.324V32.8125H111.119V33.6458H113.063V34.4503H111.119V35.3122H113.353V36.1168H110.19Z" fill="#009AC8"/>
<path d="M45.6778 42.5817C45.2716 42.9838 44.7201 43.1849 44.1109 43.1849C43.5012 43.1849 42.9501 42.9838 42.5439 42.5817C42.1376 42.1791 41.9344 41.6621 41.9344 41.0874C41.9344 40.5128 42.1376 39.9956 42.5728 39.5934C42.979 39.1911 43.5305 38.99 44.1398 38.99C44.7783 38.99 45.3005 39.1911 45.7067 39.5934C46.1129 39.9956 46.316 40.5128 46.316 41.0874C46.2871 41.6621 46.084 42.1791 45.6778 42.5817ZM43.2114 42.0069C43.4434 42.2657 43.7336 42.3802 44.1109 42.3802C44.4588 42.3802 44.7783 42.2657 45.0103 42.0069C45.2423 41.7483 45.3583 41.461 45.3583 41.0874C45.3583 40.7426 45.2423 40.4266 45.0103 40.168C44.7783 39.9094 44.4882 39.7945 44.1109 39.7945C43.7336 39.7945 43.4434 39.9094 43.2114 40.168C42.979 40.4266 42.863 40.7139 42.863 41.0874C42.863 41.4322 42.979 41.7483 43.2114 42.0069Z" fill="#009AC8"/>
<path d="M48.0286 39.852V40.5703H49.1316C49.5955 40.5703 49.9439 40.6852 50.2048 40.9151C50.4661 41.145 50.5821 41.461 50.5821 41.8347C50.5821 42.2368 50.4372 42.5817 50.1759 42.7828C49.9146 42.9838 49.5378 43.1276 49.0445 43.1276H47.1292V39.0188H50.2919V39.8233H48.0286V39.852ZM49.0152 41.3174H48.0286V42.3229H49.0445C49.4795 42.3229 49.6826 42.1507 49.6826 41.8058C49.6537 41.461 49.4507 41.3174 49.0152 41.3174Z" fill="#009AC8"/>
<path d="M54.9062 42.5817C54.5 42.9838 53.949 43.1849 53.3393 43.1849C52.73 43.1849 52.179 42.9838 51.7724 42.5817C51.3662 42.1791 51.1631 41.6621 51.1631 41.0874C51.1631 40.5128 51.3662 39.9956 51.8017 39.5934C52.2078 39.1911 52.7593 38.99 53.3686 38.99C54.0068 38.99 54.5294 39.1911 54.9355 39.5934C55.3417 39.9956 55.5448 40.5128 55.5448 41.0874C55.5159 41.6621 55.3128 42.1791 54.9062 42.5817ZM52.4398 42.0069C52.6722 42.2657 52.9624 42.3802 53.3393 42.3802C53.6877 42.3802 54.0068 42.2657 54.2392 42.0069C54.4712 41.7483 54.5871 41.461 54.5871 41.0874C54.5871 40.7426 54.4712 40.4266 54.2392 40.168C54.0068 39.9094 53.7166 39.7945 53.3393 39.7945C52.9624 39.7945 52.6722 39.9094 52.4398 40.168C52.2079 40.4266 52.0919 40.7139 52.0919 41.0874C52.0919 41.4322 52.2079 41.7483 52.4398 42.0069Z" fill="#009AC8"/>
<path d="M56.3281 43.1276V39.0188H58.0115C58.5048 39.0188 58.882 39.1624 59.1718 39.421C59.462 39.6796 59.6073 40.0244 59.6073 40.4554C59.6073 40.9151 59.462 41.2599 59.1429 41.5185C58.8238 41.7771 58.4177 41.8919 57.9533 41.8919H57.2569V43.1276H56.3281ZM57.2569 41.0875H57.9822C58.2146 41.0875 58.3888 41.03 58.5048 40.9151C58.6207 40.8002 58.7078 40.6565 58.7078 40.4554C58.7078 40.2543 58.6496 40.1106 58.5048 39.9957C58.3888 39.8807 58.1852 39.8233 57.9533 39.8233H57.2569V41.0875Z" fill="#009AC8"/>
<path d="M61.9291 41.2024L62.9156 39.0474H63.9022L62.3063 42.208C62.1321 42.5528 61.9291 42.8112 61.726 42.955C61.5229 43.0988 61.262 43.1849 60.9718 43.1849C60.6523 43.1849 60.3621 43.0988 60.0719 42.955L60.4203 42.2941C60.5652 42.3802 60.7394 42.4379 60.9136 42.4379C61.1167 42.4379 61.2909 42.3229 61.4358 42.1219L59.7817 39.0474H60.7976L61.9291 41.2024Z" fill="#009AC8"/>
<path d="M63.903 43.9896V42.3229H64.2802C64.454 41.9496 64.5704 41.5472 64.6282 41.145C64.6864 40.7427 64.7442 40.1968 64.7442 39.5072V39.0188H67.7621V42.2941H68.2554L68.1394 43.9608H67.3848V43.0988H64.8024L64.7442 43.9608H63.903V43.9896ZM66.8337 39.852H65.6148V40.2543C65.6148 41.03 65.4988 41.7196 65.2375 42.2941H66.8337V39.852Z" fill="#009AC8"/>
<path d="M72.4635 42.5817C72.0573 42.9838 71.5058 43.1849 70.8965 43.1849C70.2873 43.1849 69.7358 42.9838 69.3296 42.5817C68.9234 42.1791 68.7203 41.6621 68.7203 41.0874C68.7203 40.5128 68.9234 39.9956 69.3585 39.5934C69.7647 39.1911 70.3162 38.99 70.9254 38.99C71.564 38.99 72.0862 39.1911 72.4924 39.5934C72.8985 39.9956 73.1016 40.5128 73.1016 41.0874C73.1016 41.6621 72.8697 42.1791 72.4635 42.5817ZM69.9971 42.0069C70.2291 42.2657 70.5192 42.3802 70.8965 42.3802C71.2445 42.3802 71.564 42.2657 71.796 42.0069C72.028 41.7483 72.1444 41.461 72.1444 41.0874C72.1444 40.7426 72.028 40.4266 71.796 40.168C71.564 39.9094 71.2738 39.7945 70.8965 39.7945C70.5192 39.7945 70.2291 39.9094 69.9971 40.168C69.7647 40.4266 69.6487 40.7139 69.6487 41.0874C69.6487 41.4322 69.7647 41.7483 69.9971 42.0069Z" fill="#009AC8"/>
<path d="M73.886 43.1276V39.0188H75.8009C76.2653 39.0188 76.6426 39.1337 76.8745 39.3923C77.0776 39.5934 77.1647 39.8233 77.1647 40.1106C77.1647 40.4841 76.9905 40.8002 76.6137 41.0013C76.8745 41.0875 77.0487 41.2312 77.1941 41.3748C77.31 41.5185 77.3971 41.7483 77.3971 42.0069C77.3971 42.3806 77.2518 42.639 76.9905 42.84C76.7008 43.0411 76.3235 43.1276 75.8591 43.1276H73.886ZM74.7854 40.6852H75.6271C76.0622 40.6852 76.2942 40.5416 76.2942 40.2543C76.2942 40.1106 76.2364 40.0244 76.1493 39.9382C76.0333 39.852 75.888 39.8233 75.7138 39.8233H74.8143V40.6852H74.7854ZM74.7854 42.3518H75.8591C76.2942 42.3518 76.4973 42.208 76.4973 41.8919C76.4973 41.6047 76.2653 41.461 75.8302 41.461H74.7854V42.3518Z" fill="#009AC8"/>
<path d="M77.6875 43.1272L79.4575 38.99H80.2992L82.0692 43.1272H81.1116L80.7343 42.208H78.9931L78.6163 43.1272H77.6875ZM79.3126 41.4035H80.4152L79.8637 40.0818L79.3126 41.4035Z" fill="#009AC8"/>
<path d="M82.708 43.1276V39.0188H83.6075V40.6278H85.2904V39.0188H86.1899V43.1276H85.2904V41.4897H83.6075V43.1276H82.708Z" fill="#009AC8"/>
<path d="M90.7754 39.0474V43.1561H89.876V40.484L88.0766 43.1561H87.2061V39.0474H88.1059V41.7195L89.9337 39.0474H90.7754Z" fill="#009AC8"/>
<path d="M91.7625 43.1276V39.0188H94.8963V39.8233H92.6912V40.6565H94.635V41.461H92.6912V42.3229H94.9252V43.1276H91.7625Z" fill="#009AC8"/>
<path d="M41.6442 51V49.3337H42.0214C42.1955 48.96 42.3116 48.5578 42.3696 48.1557C42.4276 47.7531 42.4857 47.2072 42.4857 46.5178V46.0292H45.5033V49.3049H45.9966L45.8806 50.9711H45.126V50.1092H42.5437L42.4857 50.9711H41.6442V51ZM44.6039 46.8627H43.3853V47.2649C43.3853 48.0407 43.2689 48.7301 43.0081 49.3049H44.6039V46.8627Z" fill="#009AC8"/>
<path d="M47.1872 46.058H50.1468V50.1669H49.2474V46.8912H48.0577V47.2076C48.0577 48.0119 47.9995 48.6151 47.9124 49.075C47.8253 49.506 47.6804 49.822 47.4773 49.9947C47.3031 50.1669 47.0419 50.253 46.6939 50.253C46.5197 50.253 46.3455 50.2242 46.2295 50.1957L46.2873 49.4487C46.3455 49.4487 46.4037 49.4487 46.4326 49.4487C46.5775 49.4487 46.6646 49.4199 46.7517 49.3622C46.8388 49.3049 46.9259 49.1899 46.9841 49.0177C47.0707 48.8451 47.1001 48.5867 47.129 48.2418C47.1578 47.897 47.1872 47.466 47.1872 46.92V46.058Z" fill="#009AC8"/>
<path d="M54.413 46.058V50.1669H53.5131V48.845H52.7878L51.8884 50.1669H50.8147L51.8301 48.7012C51.2498 48.4717 50.9307 48.0692 50.9307 47.4087C50.9307 46.9777 51.076 46.6612 51.3369 46.4029C51.6271 46.173 52.0043 46.0292 52.4687 46.0292H54.413V46.058ZM52.5847 48.0407H53.5131V46.8627H52.6136C52.3816 46.8627 52.2074 46.92 52.0914 47.0061C51.9755 47.1211 51.8884 47.2649 51.8884 47.4371C51.8884 47.6097 51.9461 47.7531 52.0626 47.8681C52.1785 47.983 52.3527 48.0407 52.5847 48.0407Z" fill="#009AC8"/>
<path d="M57.17 50.138V46.0292H58.0695V47.8108L59.7524 46.0292H60.8554L59.1721 47.7531L60.9421 50.1092H59.8395L58.5628 48.3568L58.0984 48.845V50.1092H57.17V50.138Z" fill="#009AC8"/>
<path d="M62.0451 46.058H65.0052V50.1669H64.1053V46.8912H62.9157V47.2076C62.9157 48.0119 62.8579 48.6151 62.7708 49.075C62.6837 49.506 62.5384 49.822 62.3353 49.9947C62.1615 50.1669 61.9002 50.253 61.5519 50.253C61.3781 50.253 61.2039 50.2242 61.0879 50.1957L61.1457 49.4487C61.2039 49.4487 61.2617 49.4487 61.291 49.4487C61.4359 49.4487 61.523 49.4199 61.6101 49.3622C61.6972 49.3049 61.7843 49.1899 61.842 49.0177C61.9291 48.8451 61.9585 48.5867 61.9874 48.2418C62.0162 47.897 62.0451 47.466 62.0451 46.92V46.058Z" fill="#009AC8"/>
<path d="M69.5611 46.058V50.1669H68.6617V47.4948L66.8628 50.1669H65.9922V46.058H66.8916V48.7301L68.7199 46.058H69.5611Z" fill="#009AC8"/>
<path d="M70.5482 50.138V46.0292H71.4481V47.6382H73.131V46.0292H74.0305V50.138H73.131V48.5002H71.4481V50.138H70.5482Z" fill="#009AC8"/>
<path d="M78.5865 46.058V50.1669H77.6871V47.4948L75.8881 50.1669H75.0176V46.058H75.917V48.7301L77.7453 46.058H78.5865Z" fill="#009AC8"/>
<path d="M79.5742 50.138V46.0292H80.4737V47.6382H82.1566V46.0292H83.0561V50.138H82.1566V48.5002H80.4737V50.138H79.5742Z" fill="#009AC8"/>
<path d="M85.0005 46.8627V50.138H84.1011V46.0292H87.0025V46.8339H85.0005V46.8627Z" fill="#009AC8"/>
<path d="M86.6548 50.138L88.4248 46.0008H89.2661L91.0361 50.138H90.0788L89.7016 49.2188H87.9604L87.5831 50.138H86.6548ZM88.3084 48.4429H89.4114L88.8599 47.1211L88.3084 48.4429Z" fill="#009AC8"/>
</g>
</svg>
