<svg width="15" height="13" viewBox="0 0 15 13" fill="none" xmlns="http://www.w3.org/2000/svg">
<path d="M13.6766 0.0813763L0.684697 5.09188C-0.20172 5.44754 -0.197137 5.94254 0.523363 6.16254L3.76286 7.17454L5.00311 10.975C5.15345 11.3912 5.0792 11.5562 5.51645 11.5562C5.85378 11.5562 6.00228 11.4022 6.19111 11.2189C6.31028 11.1025 7.01886 10.4122 7.81086 9.64313L11.1814 12.1337C11.8011 12.4756 12.2494 12.2987 12.4034 11.558L14.6162 1.13188C14.8426 0.224376 14.2697 -0.188124 13.6766 0.0813763ZM4.27161 6.94171L11.5747 2.33454C11.9395 2.11271 12.2741 2.23188 11.9991 2.47571L5.74561 8.11779L5.5027 10.7147L4.27161 6.94171Z" fill="white"/>
</svg>
