<svg width="15" height="9" viewBox="0 0 15 9" fill="none" xmlns="http://www.w3.org/2000/svg">
<path d="M13.7083 0.565104C13.8047 0.239583 13.7083 0 13.2448 0H11.7109C11.3203 0 11.1406 0.205729 11.0443 0.434896C11.0443 0.434896 10.263 2.33854 9.15885 3.57292C8.80208 3.92969 8.63802 4.04427 8.44271 4.04427C8.34635 4.04427 8.19792 3.92969 8.19792 3.60417V0.565104C8.19792 0.174479 8.08854 0 7.76562 0H5.35417C5.10938 0 4.96354 0.182292 4.96354 0.351562C4.96354 0.721354 5.51563 0.807292 5.57292 1.84896V4.10937C5.57292 4.60417 5.48438 4.69531 5.28906 4.69531C4.76823 4.69531 3.5026 2.78385 2.7526 0.596354C2.60156 0.171875 2.45313 0 2.0599 0H0.526042C0.0885417 0 0 0.205729 0 0.434896C0 0.841146 0.520833 2.85938 2.42448 5.52604C3.69271 7.34635 5.47917 8.33333 7.10417 8.33333C8.08073 8.33333 8.20052 8.11458 8.20052 7.73698C8.20052 5.9974 8.11198 5.83333 8.60156 5.83333C8.82813 5.83333 9.21875 5.94792 10.1302 6.82552C11.1719 7.86719 11.3438 8.33333 11.9271 8.33333H13.4609C13.8984 8.33333 14.1198 8.11458 13.9922 7.68229C13.7005 6.77344 11.7292 4.90365 11.6406 4.77865C11.4141 4.48698 11.4792 4.35677 11.6406 4.09635C11.6432 4.09375 13.5156 1.45833 13.7083 0.565104Z" fill="white"/>
</svg>
