<svg width="133" height="51" viewBox="0 0 133 51" fill="none" xmlns="http://www.w3.org/2000/svg">
<mask id="mask0_2041_4827" style="mask-type:luminance" maskUnits="userSpaceOnUse" x="0" y="0" width="133" height="51">
<path d="M133 0H0V50.7818H133V0Z" fill="white"/>
</mask>
<g mask="url(#mask0_2041_4827)">
<path d="M41.5859 18.6247C41.5569 17.1084 42.1083 15.821 43.2402 14.7052C44.3718 13.6181 45.7069 13.0745 47.2447 13.1031C49.2473 13.1031 50.7562 13.9328 51.7722 15.5635L50.1469 16.8223C49.3922 15.7352 48.4349 15.2202 47.274 15.2202C46.3162 15.2202 45.5038 15.5635 44.8651 16.2215C44.2269 16.8796 43.9074 17.6806 43.9074 18.6534C43.9074 19.6261 44.2269 20.4557 44.8651 21.1138C45.5038 21.7718 46.3162 22.1151 47.274 22.1151C48.4056 22.1151 49.3633 21.5715 50.1469 20.513L51.7722 21.7432C51.2789 22.5156 50.6691 23.1164 49.8856 23.5456C49.102 23.9747 48.2318 24.2036 47.274 24.2036C45.678 24.2036 44.3429 23.66 43.2402 22.6014C42.1373 21.4857 41.5859 20.1697 41.5859 18.6247Z" fill="white"/>
<path d="M53.2233 18.6247C53.194 17.1084 53.7456 15.821 54.8775 14.7052C56.0091 13.6181 57.3442 13.0745 58.882 13.1031C60.4491 13.0745 61.7842 13.6181 62.9158 14.7052C64.0478 15.821 64.5993 17.1084 64.57 18.5961C64.5993 20.1124 64.0478 21.3999 62.9158 22.5156C61.7842 23.6314 60.4202 24.1464 58.882 24.1178C57.3442 24.1464 56.0091 23.6028 54.8775 22.487C53.7167 21.4285 53.194 20.1411 53.2233 18.6247ZM62.2193 18.6534C62.2193 17.6806 61.9002 16.8509 61.262 16.1929C60.6233 15.5349 59.8398 15.1916 58.9113 15.1916C57.9535 15.1916 57.17 15.5349 56.5313 16.1929C55.8931 16.8509 55.574 17.6806 55.574 18.6534C55.574 19.6261 55.8931 20.4557 56.5313 21.0852C57.17 21.7432 57.9535 22.0579 58.9113 22.0579C59.8687 22.0579 60.6522 21.7146 61.2909 21.0566C61.8713 20.4272 62.2193 19.6261 62.2193 18.6534Z" fill="white"/>
<path d="M82.6207 17.3087V23.9175H80.2994V17.6234C80.2994 16.8795 80.0963 16.2788 79.69 15.8496C79.2834 15.3919 78.7612 15.1916 78.0647 15.1916C77.3683 15.1916 76.7878 15.4205 76.3523 15.8496C75.9172 16.2788 75.6852 16.8509 75.6852 17.5376V23.9175H73.4216V17.6234C73.4216 16.8795 73.2185 16.3074 72.8118 15.8496C72.4056 15.3919 71.8545 15.163 71.1869 15.163C70.4905 15.163 69.9101 15.3919 69.4745 15.8496C69.0394 16.3074 68.8074 16.8795 68.8074 17.6234V23.9175H66.5145V13.3606H68.6621V14.3619C69.4745 13.5322 70.4905 13.1317 71.7674 13.1317C73.2474 13.1317 74.3501 13.6753 75.0176 14.7911C75.8883 13.6753 77.078 13.1317 78.6451 13.1317C79.8638 13.1317 80.8216 13.5036 81.5469 14.2761C82.2727 15.0486 82.6207 16.0499 82.6207 17.3087Z" fill="white"/>
<path d="M96.7244 18.6247C96.7244 20.1983 96.2311 21.5143 95.2155 22.5729C94.2284 23.6314 92.9515 24.1464 91.4426 24.1464C89.9626 24.1464 88.7729 23.6314 87.8733 22.63V27.8084H85.5804V13.3606H87.728V14.8483C88.5404 13.7039 89.7884 13.1317 91.4715 13.1317C92.9809 13.1317 94.2284 13.6467 95.2444 14.7052C96.2311 15.7638 96.7244 17.0798 96.7244 18.6247ZM93.416 21.1424C94.0546 20.4843 94.3448 19.6833 94.3448 18.6533C94.3448 17.652 94.0253 16.8224 93.416 16.1643C92.7777 15.5063 92.0231 15.1916 91.0653 15.1916C90.1658 15.1916 89.4111 15.5063 88.7729 16.1071C88.1342 16.7079 87.844 17.5662 87.844 18.6533C87.844 19.7691 88.1635 20.5988 88.7729 21.2282C89.4111 21.829 90.1658 22.1437 91.0653 22.1437C92.0231 22.0865 92.8066 21.7718 93.416 21.1424Z" fill="white"/>
<path d="M107.897 17.5376V23.9175H105.75V22.7445C104.937 23.6886 103.805 24.175 102.325 24.175C101.194 24.175 100.294 23.8889 99.6267 23.3453C98.9303 22.7731 98.6107 22.0579 98.6107 21.1424C98.6107 20.2269 98.9591 19.483 99.6845 18.9395C100.41 18.3959 101.368 18.1098 102.558 18.1098H105.605V17.4232C105.605 16.6793 105.402 16.1357 104.995 15.7352C104.589 15.3347 104.038 15.163 103.312 15.163C102.209 15.163 101.223 15.678 100.352 16.7365L99.0169 15.3919C100.062 13.8755 101.571 13.1317 103.544 13.1317C104.879 13.1317 105.953 13.5322 106.736 14.3047C107.491 15.0486 107.897 16.1357 107.897 17.5376ZM105.576 19.9122V19.7405H102.819C101.542 19.7405 100.932 20.1697 100.932 21.0279C100.932 21.4571 101.107 21.8004 101.455 22.0579C101.803 22.3154 102.238 22.4298 102.819 22.4298C103.602 22.4298 104.27 22.2009 104.792 21.7146C105.315 21.2282 105.576 20.656 105.576 19.9122Z" fill="white"/>
<path d="M120.231 17.3087V23.9175H117.938V17.6234C117.938 16.8795 117.735 16.3074 117.3 15.8496C116.865 15.3919 116.313 15.163 115.617 15.163C114.891 15.163 114.311 15.3919 113.846 15.8496C113.382 16.3074 113.15 16.9082 113.15 17.6234V23.9175H110.857V13.3606H113.005V14.3905C113.817 13.5322 114.891 13.1317 116.226 13.1317C117.474 13.1317 118.432 13.5036 119.157 14.2761C119.853 15.0199 120.231 16.0499 120.231 17.3087Z" fill="white"/>
<path d="M130.446 13.3606H132.884L127.66 25.1477C127.196 26.149 126.673 26.8929 126.035 27.3507C125.397 27.8084 124.642 28.0373 123.713 28.0373C123.104 28.0373 122.524 27.9515 121.943 27.8084V25.8916C122.553 25.9488 122.959 25.9774 123.22 25.9774C124.323 25.9774 125.106 25.4624 125.571 24.4325L126.006 23.4311L121.74 13.332H124.207L127.283 21.0279L130.446 13.3606Z" fill="white"/>
<path d="M41.5859 18.6247C41.5569 17.1084 42.1083 15.821 43.2402 14.7052C44.3718 13.6181 45.7069 13.0745 47.2447 13.1031C49.2473 13.1031 50.7562 13.9328 51.7722 15.5635L50.1469 16.8223C49.3922 15.7352 48.4349 15.2202 47.274 15.2202C46.3162 15.2202 45.5038 15.5635 44.8651 16.2215C44.2269 16.8796 43.9074 17.6806 43.9074 18.6534C43.9074 19.6261 44.2269 20.4557 44.8651 21.1138C45.5038 21.7718 46.3162 22.1151 47.274 22.1151C48.4056 22.1151 49.3633 21.5715 50.1469 20.513L51.7722 21.7432C51.2789 22.5156 50.6691 23.1164 49.8856 23.5456C49.102 23.9747 48.2318 24.2036 47.274 24.2036C45.678 24.2036 44.3429 23.66 43.2402 22.6014C42.1373 21.4857 41.5859 20.1697 41.5859 18.6247Z" stroke="#232B46" stroke-width="0.312971" stroke-miterlimit="10"/>
<path d="M53.2233 18.6247C53.194 17.1084 53.7456 15.821 54.8775 14.7052C56.0091 13.6181 57.3442 13.0745 58.882 13.1031C60.4491 13.0745 61.7842 13.6181 62.9158 14.7052C64.0478 15.821 64.5993 17.1084 64.57 18.5961C64.5993 20.1124 64.0478 21.3999 62.9158 22.5156C61.7842 23.6314 60.4202 24.1464 58.882 24.1178C57.3442 24.1464 56.0091 23.6028 54.8775 22.487C53.7167 21.4285 53.194 20.1411 53.2233 18.6247ZM62.2193 18.6534C62.2193 17.6806 61.9002 16.8509 61.262 16.1929C60.6233 15.5349 59.8398 15.1916 58.9113 15.1916C57.9535 15.1916 57.17 15.5349 56.5313 16.1929C55.8931 16.8509 55.574 17.6806 55.574 18.6534C55.574 19.6261 55.8931 20.4557 56.5313 21.0852C57.17 21.7432 57.9535 22.0579 58.9113 22.0579C59.8687 22.0579 60.6522 21.7146 61.2909 21.0566C61.8713 20.4272 62.2193 19.6261 62.2193 18.6534Z" stroke="#232B46" stroke-width="0.312971" stroke-miterlimit="10"/>
<path d="M82.6207 17.3087V23.9175H80.2994V17.6234C80.2994 16.8795 80.0963 16.2788 79.69 15.8496C79.2834 15.3919 78.7612 15.1916 78.0647 15.1916C77.3683 15.1916 76.7878 15.4205 76.3523 15.8496C75.9172 16.2788 75.6852 16.8509 75.6852 17.5376V23.9175H73.4216V17.6234C73.4216 16.8795 73.2185 16.3074 72.8118 15.8496C72.4056 15.3919 71.8545 15.163 71.1869 15.163C70.4905 15.163 69.9101 15.3919 69.4745 15.8496C69.0394 16.3074 68.8074 16.8795 68.8074 17.6234V23.9175H66.5145V13.3606H68.6621V14.3619C69.4745 13.5322 70.4905 13.1317 71.7674 13.1317C73.2474 13.1317 74.3501 13.6753 75.0176 14.7911C75.8883 13.6753 77.078 13.1317 78.6451 13.1317C79.8638 13.1317 80.8216 13.5036 81.5469 14.2761C82.2727 15.0486 82.6207 16.0499 82.6207 17.3087Z" stroke="#232B46" stroke-width="0.312971" stroke-miterlimit="10"/>
<path d="M96.7244 18.6247C96.7244 20.1983 96.2311 21.5143 95.2155 22.5729C94.2284 23.6314 92.9515 24.1464 91.4426 24.1464C89.9626 24.1464 88.7729 23.6314 87.8733 22.63V27.8084H85.5804V13.3606H87.728V14.8483C88.5404 13.7039 89.7884 13.1317 91.4715 13.1317C92.9809 13.1317 94.2284 13.6467 95.2444 14.7052C96.2311 15.7638 96.7244 17.0798 96.7244 18.6247ZM93.416 21.1424C94.0546 20.4843 94.3448 19.6833 94.3448 18.6533C94.3448 17.652 94.0253 16.8224 93.416 16.1643C92.7777 15.5063 92.0231 15.1916 91.0653 15.1916C90.1658 15.1916 89.4111 15.5063 88.7729 16.1071C88.1342 16.7079 87.844 17.5662 87.844 18.6533C87.844 19.7691 88.1635 20.5988 88.7729 21.2282C89.4111 21.829 90.1658 22.1437 91.0653 22.1437C92.0231 22.0865 92.8066 21.7718 93.416 21.1424Z" stroke="#232B46" stroke-width="0.312971" stroke-miterlimit="10"/>
<path d="M107.897 17.5376V23.9175H105.75V22.7445C104.937 23.6886 103.805 24.175 102.325 24.175C101.194 24.175 100.294 23.8889 99.6267 23.3453C98.9303 22.7731 98.6107 22.0579 98.6107 21.1424C98.6107 20.2269 98.9591 19.483 99.6845 18.9395C100.41 18.3959 101.368 18.1098 102.558 18.1098H105.605V17.4232C105.605 16.6793 105.402 16.1357 104.995 15.7352C104.589 15.3347 104.038 15.163 103.312 15.163C102.209 15.163 101.223 15.678 100.352 16.7365L99.0169 15.3919C100.062 13.8755 101.571 13.1317 103.544 13.1317C104.879 13.1317 105.953 13.5322 106.736 14.3047C107.491 15.0486 107.897 16.1357 107.897 17.5376ZM105.576 19.9122V19.7405H102.819C101.542 19.7405 100.932 20.1697 100.932 21.0279C100.932 21.4571 101.107 21.8004 101.455 22.0579C101.803 22.3154 102.238 22.4298 102.819 22.4298C103.602 22.4298 104.27 22.2009 104.792 21.7146C105.315 21.2282 105.576 20.656 105.576 19.9122Z" stroke="#232B46" stroke-width="0.312971" stroke-miterlimit="10"/>
<path d="M120.231 17.3087V23.9175H117.938V17.6234C117.938 16.8795 117.735 16.3074 117.3 15.8496C116.865 15.3919 116.313 15.163 115.617 15.163C114.891 15.163 114.311 15.3919 113.846 15.8496C113.382 16.3074 113.15 16.9082 113.15 17.6234V23.9175H110.857V13.3606H113.005V14.3905C113.817 13.5322 114.891 13.1317 116.226 13.1317C117.474 13.1317 118.432 13.5036 119.157 14.2761C119.853 15.0199 120.231 16.0499 120.231 17.3087Z" stroke="#232B46" stroke-width="0.312971" stroke-miterlimit="10"/>
<path d="M130.446 13.3606H132.884L127.66 25.1477C127.196 26.149 126.673 26.8929 126.035 27.3507C125.397 27.8084 124.642 28.0373 123.713 28.0373C123.104 28.0373 122.524 27.9515 121.943 27.8084V25.8916C122.553 25.9488 122.959 25.9774 123.22 25.9774C124.323 25.9774 125.106 25.4624 125.571 24.4325L126.006 23.4311L121.74 13.332H124.207L127.283 21.0279L130.446 13.3606Z" stroke="#232B46" stroke-width="0.312971" stroke-miterlimit="10"/>
<path d="M18.0455 0V5.89995H24.9409V10.3616H18.0455V16.7019C18.0455 17.8173 18.2509 18.7272 18.691 19.4023C19.1018 20.0775 19.9528 20.4003 21.2438 20.4003C21.86 20.4003 22.5055 20.3416 23.151 20.2536C23.7966 20.1655 24.4128 19.9894 24.9409 19.8133L25.7332 24.0108C25.029 24.2749 24.2661 24.5097 23.4151 24.6859C22.5642 24.8914 21.5372 24.9794 20.3048 24.9794C18.7497 24.9794 17.4586 24.7739 16.4317 24.3923C15.4047 23.9814 14.5831 23.4531 13.9669 22.7192C13.3507 21.9854 12.9106 21.1342 12.6759 20.1362C12.4411 19.1382 12.3238 17.9934 12.3238 16.7899V8.71784H7.80505V4.19748H7.83439C10.2111 4.19748 12.1771 2.34824 12.3238 0.029353C12.3238 0.029353 12.3238 0.029353 12.3238 0H0V51.0156H32.9221V0H18.0455Z" fill="#009AC8"/>
<path d="M42.0795 35.9623V31.8711H45.5327V35.9623H44.6328V32.7008H43.0081V35.9623H42.0795Z" fill="#009AC8"/>
<path d="M46.52 35.9623V31.8711H48.2029C48.6962 31.8711 49.0735 32.0142 49.3637 32.2716C49.6535 32.5291 49.7988 32.8725 49.7988 33.3016C49.7988 33.7593 49.6535 34.1026 49.3344 34.3601C49.0153 34.6176 48.6091 34.7321 48.1447 34.7321H47.4484V35.9623H46.52ZM47.4484 33.931H48.1736C48.406 33.931 48.5802 33.8738 48.6962 33.7593C48.8122 33.6449 48.8993 33.5019 48.8993 33.3016C48.8993 33.1013 48.8411 32.9582 48.6962 32.8438C48.5802 32.7294 48.3767 32.6722 48.1447 32.6722H47.4484V33.931Z" fill="#009AC8"/>
<path d="M54.0643 35.4187C53.6581 35.8192 53.1066 36.0195 52.4974 36.0195C51.8881 36.0195 51.3366 35.8192 50.9304 35.4187C50.5243 35.0182 50.3212 34.5032 50.3212 33.931C50.3212 33.3588 50.5243 32.8438 50.9593 32.4433C51.3655 32.0428 51.917 31.8425 52.5263 31.8425C53.1648 31.8425 53.687 32.0428 54.0932 32.4433C54.4994 32.8438 54.7025 33.3588 54.7025 33.931C54.7025 34.5032 54.4705 34.9895 54.0643 35.4187ZM51.5979 34.8179C51.8299 35.0754 52.1201 35.1898 52.4974 35.1898C52.8458 35.1898 53.1648 35.0754 53.3968 34.8179C53.6292 34.5604 53.7452 34.2743 53.7452 33.9024C53.7452 33.5591 53.6292 33.2444 53.3968 32.9869C53.1648 32.7294 52.8747 32.615 52.4974 32.615C52.1201 32.615 51.8299 32.7294 51.5979 32.9869C51.3655 33.2444 51.2495 33.5305 51.2495 33.9024C51.2495 34.2743 51.3655 34.589 51.5979 34.8179Z" fill="#009AC8"/>
<path d="M58.2142 36.1053H57.3147V35.6761C56.6766 35.6761 56.1833 35.5044 55.806 35.1611C55.4287 34.8179 55.2545 34.3887 55.2545 33.8737C55.2545 33.3587 55.4287 32.9296 55.806 32.5863C56.1833 32.243 56.6766 32.0999 57.3147 32.0999V31.728H58.2142V32.0999C58.8239 32.0999 59.346 32.2716 59.694 32.5863C60.0713 32.9296 60.2455 33.3302 60.2455 33.8737C60.2455 34.3887 60.0713 34.8179 59.694 35.1611C59.3172 35.5044 58.8239 35.6761 58.1853 35.6761V36.1053H58.2142ZM57.3147 34.875V32.901C56.9668 32.901 56.7055 32.9868 56.5024 33.1585C56.2993 33.3302 56.1833 33.5876 56.1833 33.8737C56.1833 34.1884 56.2993 34.4173 56.5024 34.589C56.7055 34.7892 56.9668 34.875 57.3147 34.875ZM58.2142 32.901V34.875C58.5626 34.875 58.8239 34.7892 59.027 34.6176C59.2301 34.4459 59.3172 34.1884 59.3172 33.9023C59.3172 33.6162 59.2301 33.3587 59.027 33.1871C58.8239 32.9868 58.5337 32.901 58.2142 32.901Z" fill="#009AC8"/>
<path d="M61.0011 35.9623V31.8711H64.135V32.6722H61.9294V33.5019H63.8737V34.3029H61.9294V35.1612H64.1639V35.9623H61.0011Z" fill="#009AC8"/>
<path d="M66.7759 36.0195C66.1662 36.0195 65.6729 35.8192 65.2667 35.4187C64.8606 35.0182 64.6575 34.5032 64.6575 33.931C64.6575 33.3302 64.8606 32.8438 65.2667 32.4433C65.6729 32.0428 66.1955 31.8425 66.8048 31.8425C67.1532 31.8425 67.4723 31.8997 67.7042 32.0142C67.9367 32.1286 68.1686 32.3003 68.4006 32.5005L67.8495 33.1299C67.6754 32.9583 67.5012 32.8438 67.3563 32.7866C67.211 32.7294 67.0079 32.6722 66.8048 32.6722C66.4564 32.6722 66.1662 32.7866 65.9342 33.0441C65.7022 33.3016 65.5862 33.5877 65.5862 33.9596C65.5862 34.3029 65.7022 34.6176 65.9342 34.8751C66.1662 35.1326 66.4564 35.247 66.8048 35.247C67.0368 35.247 67.211 35.2184 67.3852 35.1326C67.5594 35.0468 67.7042 34.9324 67.9073 34.7607L68.4877 35.3615C68.2557 35.5904 68.0233 35.762 67.7624 35.8764C67.5012 35.9623 67.1532 36.0195 66.7759 36.0195Z" fill="#009AC8"/>
<path d="M71.0124 36.0195C70.4031 36.0195 69.9099 35.8192 69.5037 35.4187C69.0975 35.0182 68.8944 34.5032 68.8944 33.931C68.8944 33.3302 69.0975 32.8438 69.5037 32.4433C69.9099 32.0428 70.432 31.8425 71.0417 31.8425C71.3897 31.8425 71.7088 31.8997 71.9412 32.0142C72.1732 32.1286 72.4056 32.3003 72.6376 32.5005L72.0861 33.1299C71.9123 32.9583 71.7381 32.8438 71.5928 32.7866C71.4479 32.7294 71.2448 32.6722 71.0417 32.6722C70.6933 32.6722 70.4031 32.7866 70.1712 33.0441C69.9388 33.3016 69.8228 33.5877 69.8228 33.9596C69.8228 34.3029 69.9388 34.6176 70.1712 34.8751C70.4031 35.1326 70.6933 35.247 71.0417 35.247C71.2737 35.247 71.4479 35.2184 71.6221 35.1326C71.7959 35.0468 71.9412 34.9324 72.1443 34.7607L72.7246 35.3615C72.4922 35.5904 72.2603 35.762 71.999 35.8764C71.7381 35.9623 71.419 36.0195 71.0124 36.0195Z" fill="#009AC8"/>
<path d="M77.0197 31.8711V35.9623H76.1202V33.3016L74.3209 35.9623H73.4503V31.8711H74.3502V34.5318L76.178 31.8711H77.0197Z" fill="#009AC8"/>
<path d="M81.5758 35.4187C81.1696 35.8192 80.6181 36.0195 80.0088 36.0195C79.3996 36.0195 78.8481 35.8192 78.4419 35.4187C78.0357 35.0182 77.8326 34.5032 77.8326 33.931C77.8326 33.3588 78.0357 32.8438 78.4708 32.4433C78.8774 32.0428 79.4285 31.8425 80.0377 31.8425C80.6763 31.8425 81.1985 32.0428 81.6047 32.4433C82.0113 32.8438 82.2144 33.3588 82.2144 33.931C82.2144 34.5032 82.0113 34.9895 81.5758 35.4187ZM79.1383 34.8179C79.3707 35.0754 79.6609 35.1898 80.0377 35.1898C80.3861 35.1898 80.7052 35.0754 80.9376 34.8179C81.1696 34.5604 81.2856 34.2743 81.2856 33.9024C81.2856 33.5591 81.1696 33.2444 80.9376 32.9869C80.7052 32.7294 80.415 32.615 80.0377 32.615C79.6609 32.615 79.3707 32.7294 79.1383 32.9869C78.9063 33.2444 78.7903 33.5305 78.7903 33.9024C78.761 34.2743 78.8774 34.589 79.1383 34.8179Z" fill="#009AC8"/>
<path d="M83.0273 35.9623V31.8711H83.9268V33.4732H85.6097V31.8711H86.5092V35.9623H85.6097V34.3315H83.9268V35.9623H83.0273Z" fill="#009AC8"/>
<path d="M87.1482 35.9623L88.9182 31.8425H89.7595L91.5295 35.9623H90.5722L90.195 35.0468H88.4538L88.0765 35.9623H87.1482ZM88.8022 34.2457H89.9048L89.3533 32.9297L88.8022 34.2457Z" fill="#009AC8"/>
<path d="M92.7201 31.8711H95.6798V35.9622H94.7803V32.7008H93.5907V33.0155C93.5907 33.8165 93.5325 34.4173 93.4454 34.8751C93.3583 35.3042 93.2134 35.619 93.0103 35.7906C92.8361 35.9622 92.5748 36.0481 92.2268 36.0481C92.0526 36.0481 91.8784 36.0195 91.7625 35.9909L91.8207 35.247C91.8784 35.247 91.9366 35.247 91.9655 35.247C92.1108 35.247 92.1979 35.2184 92.2846 35.1612C92.3717 35.104 92.4588 34.9895 92.517 34.8179C92.6041 34.6462 92.633 34.3887 92.6619 34.0454C92.6912 33.7021 92.7201 33.273 92.7201 32.7294V31.8711Z" fill="#009AC8"/>
<path d="M96.6667 35.9623V31.8711H97.5662V33.2444H98.4368C98.9012 33.2444 99.2784 33.3588 99.5393 33.6163C99.8006 33.8452 99.9459 34.1885 99.9459 34.589C99.9459 35.0182 99.8006 35.3328 99.5104 35.5903C99.2202 35.8478 98.8429 35.9623 98.3497 35.9623H96.6667ZM98.379 34.0454H97.5662V35.1612H98.379C98.8429 35.1612 99.046 34.9609 99.046 34.589C99.0754 34.2171 98.8429 34.0454 98.379 34.0454Z" fill="#009AC8"/>
<path d="M100.672 35.9623V31.8711H101.571V33.4732H103.254V31.8711H104.153V35.9623H103.254V34.3315H101.571V35.9623H100.672Z" fill="#009AC8"/>
<path d="M108.739 35.4187C108.332 35.8192 107.781 36.0195 107.172 36.0195C106.562 36.0195 106.011 35.8192 105.605 35.4187C105.199 35.0182 104.995 34.5032 104.995 33.931C104.995 33.3588 105.199 32.8438 105.634 32.4433C106.04 32.0428 106.591 31.8425 107.201 31.8425C107.839 31.8425 108.361 32.0428 108.768 32.4433C109.174 32.8438 109.377 33.3588 109.377 33.931C109.377 34.5032 109.174 34.9895 108.739 35.4187ZM106.301 34.8179C106.533 35.0754 106.823 35.1898 107.201 35.1898C107.549 35.1898 107.868 35.0754 108.1 34.8179C108.332 34.5604 108.448 34.2743 108.448 33.9024C108.448 33.5591 108.332 33.2444 108.1 32.9869C107.868 32.7294 107.578 32.615 107.201 32.615C106.823 32.615 106.533 32.7294 106.301 32.9869C106.069 33.2444 105.953 33.5305 105.953 33.9024C105.924 34.2743 106.069 34.589 106.301 34.8179Z" fill="#009AC8"/>
<path d="M110.19 35.9623V31.8711H113.324V32.6722H111.119V33.5019H113.063V34.3029H111.119V35.1612H113.353V35.9623H110.19Z" fill="#009AC8"/>
<path d="M45.6778 42.3996C45.2716 42.8 44.7201 43.0003 44.1109 43.0003C43.5012 43.0003 42.9501 42.8 42.5439 42.3996C42.1376 41.9988 41.9344 41.4839 41.9344 40.9117C41.9344 40.3395 42.1376 39.8246 42.5728 39.4241C42.979 39.0235 43.5305 38.8232 44.1398 38.8232C44.7783 38.8232 45.3005 39.0235 45.7067 39.4241C46.1129 39.8246 46.316 40.3395 46.316 40.9117C46.2871 41.4839 46.084 41.9988 45.6778 42.3996ZM43.2114 41.8273C43.4434 42.0849 43.7336 42.199 44.1109 42.199C44.4588 42.199 44.7783 42.0849 45.0103 41.8273C45.2423 41.5697 45.3583 41.2837 45.3583 40.9117C45.3583 40.5684 45.2423 40.2537 45.0103 39.9963C44.7783 39.7388 44.4882 39.6243 44.1109 39.6243C43.7336 39.6243 43.4434 39.7388 43.2114 39.9963C42.979 40.2537 42.863 40.5398 42.863 40.9117C42.863 41.2551 42.979 41.5697 43.2114 41.8273Z" fill="#009AC8"/>
<path d="M48.0286 39.6815V40.3967H49.1316C49.5955 40.3967 49.9439 40.5111 50.2048 40.74C50.4661 40.9689 50.5821 41.2836 50.5821 41.6557C50.5821 42.0561 50.4372 42.3995 50.1759 42.5997C49.9146 42.7999 49.5378 42.9431 49.0445 42.9431H47.1292V38.8518H50.2919V39.6529H48.0286V39.6815ZM49.0152 41.1406H48.0286V42.1418H49.0445C49.4796 42.1418 49.6826 41.9704 49.6826 41.6269C49.6537 41.2836 49.4507 41.1406 49.0152 41.1406Z" fill="#009AC8"/>
<path d="M54.9062 42.3996C54.5 42.8 53.949 43.0003 53.3393 43.0003C52.73 43.0003 52.179 42.8 51.7724 42.3996C51.3662 41.9988 51.1631 41.4839 51.1631 40.9117C51.1631 40.3395 51.3662 39.8246 51.8017 39.4241C52.2078 39.0235 52.7593 38.8232 53.3686 38.8232C54.0068 38.8232 54.5294 39.0235 54.9355 39.4241C55.3417 39.8246 55.5448 40.3395 55.5448 40.9117C55.5159 41.4839 55.3128 41.9988 54.9062 42.3996ZM52.4398 41.8273C52.6722 42.0849 52.9624 42.199 53.3393 42.199C53.6877 42.199 54.0068 42.0849 54.2392 41.8273C54.4712 41.5697 54.5871 41.2837 54.5871 40.9117C54.5871 40.5684 54.4712 40.2537 54.2392 39.9963C54.0068 39.7388 53.7166 39.6243 53.3393 39.6243C52.9624 39.6243 52.6722 39.7388 52.4398 39.9963C52.2079 40.2537 52.0919 40.5398 52.0919 40.9117C52.0919 41.2551 52.2079 41.5697 52.4398 41.8273Z" fill="#009AC8"/>
<path d="M56.3281 42.9431V38.8518H58.0115C58.5048 38.8518 58.882 38.9948 59.1718 39.2523C59.462 39.5098 59.6073 39.8531 59.6073 40.2823C59.6073 40.74 59.462 41.0833 59.1429 41.3408C58.8238 41.5983 58.4177 41.7127 57.9533 41.7127H57.2569V42.9431H56.3281ZM57.2569 40.9117H57.9822C58.2146 40.9117 58.3888 40.8544 58.5048 40.74C58.6207 40.6256 58.7078 40.4825 58.7078 40.2823C58.7078 40.082 58.6496 39.939 58.5048 39.8245C58.3888 39.7101 58.1852 39.6529 57.9533 39.6529H57.2569V40.9117Z" fill="#009AC8"/>
<path d="M61.929 41.0261L62.9156 38.8804H63.9022L62.3063 42.0274C62.1321 42.3708 61.9291 42.628 61.726 42.7712C61.5229 42.9144 61.262 43.0002 60.9718 43.0002C60.6523 43.0002 60.3621 42.9144 60.0719 42.7712L60.4203 42.1131C60.5652 42.1989 60.7394 42.2563 60.9136 42.2563C61.1167 42.2563 61.2909 42.1419 61.4358 41.9416L59.7817 38.8804H60.7976L61.929 41.0261Z" fill="#009AC8"/>
<path d="M63.903 43.8014V42.1418H64.2802C64.454 41.7701 64.5704 41.3694 64.6282 40.9689C64.6864 40.5684 64.7442 40.0248 64.7442 39.3381V38.8518H67.7621V42.1131H68.2554L68.1394 43.7727H67.3848V42.9144H64.8024L64.7442 43.7727H63.903V43.8014ZM66.8337 39.6815H65.6148V40.082C65.6148 40.8544 65.4988 41.5411 65.2375 42.1131H66.8337V39.6815Z" fill="#009AC8"/>
<path d="M72.4635 42.3996C72.0573 42.8 71.5058 43.0003 70.8965 43.0003C70.2873 43.0003 69.7358 42.8 69.3296 42.3996C68.9234 41.9988 68.7203 41.4839 68.7203 40.9117C68.7203 40.3395 68.9234 39.8246 69.3585 39.4241C69.7647 39.0235 70.3162 38.8232 70.9254 38.8232C71.564 38.8232 72.0862 39.0235 72.4924 39.4241C72.8985 39.8246 73.1016 40.3395 73.1016 40.9117C73.1016 41.4839 72.8697 41.9988 72.4635 42.3996ZM69.9971 41.8273C70.2291 42.0849 70.5192 42.199 70.8965 42.199C71.2445 42.199 71.564 42.0849 71.796 41.8273C72.028 41.5697 72.1444 41.2837 72.1444 40.9117C72.1444 40.5684 72.028 40.2537 71.796 39.9963C71.564 39.7388 71.2738 39.6243 70.8965 39.6243C70.5192 39.6243 70.2291 39.7388 69.9971 39.9963C69.7647 40.2537 69.6487 40.5398 69.6487 40.9117C69.6487 41.2551 69.7647 41.5697 69.9971 41.8273Z" fill="#009AC8"/>
<path d="M73.886 42.9431V38.8518H75.8009C76.2653 38.8518 76.6426 38.9662 76.8745 39.2237C77.0776 39.424 77.1647 39.6529 77.1647 39.939C77.1647 40.3109 76.9905 40.6256 76.6137 40.8258C76.8745 40.9117 77.0487 41.0547 77.1941 41.1978C77.31 41.3408 77.3971 41.5697 77.3971 41.8272C77.3971 42.1993 77.2518 42.4565 76.9905 42.6567C76.7008 42.857 76.3235 42.9431 75.8591 42.9431H73.886ZM74.7854 40.5111H75.6271C76.0622 40.5111 76.2942 40.3681 76.2942 40.082C76.2942 39.939 76.2364 39.8531 76.1493 39.7673C76.0333 39.6815 75.888 39.6529 75.7138 39.6529H74.8143V40.5111H74.7854ZM74.7854 42.1706H75.8591C76.2942 42.1706 76.4973 42.0274 76.4973 41.7127C76.4973 41.4267 76.2653 41.2836 75.8302 41.2836H74.7854V42.1706Z" fill="#009AC8"/>
<path d="M77.6874 42.9428L79.4574 38.8232H80.2991L82.0691 42.9428H81.1114L80.7341 42.0275H78.993L78.6162 42.9428H77.6874ZM79.3125 41.2265H80.4151L79.8636 39.9104L79.3125 41.2265Z" fill="#009AC8"/>
<path d="M82.7081 42.9431V38.8518H83.6076V40.4539H85.2905V38.8518H86.19V42.9431H85.2905V41.3122H83.6076V42.9431H82.7081Z" fill="#009AC8"/>
<path d="M90.7753 38.8804V42.9714H89.8758V40.3108L88.0765 42.9714H87.2059V38.8804H88.1058V41.541L89.9336 38.8804H90.7753Z" fill="#009AC8"/>
<path d="M91.7625 42.9431V38.8518H94.8963V39.6529H92.6912V40.4825H94.635V41.2836H92.6912V42.1418H94.9252V42.9431H91.7625Z" fill="#009AC8"/>
<path d="M41.6442 50.7818V49.1227H42.0214C42.1955 48.7506 42.3116 48.3501 42.3696 47.9497C42.4276 47.5489 42.4857 47.0053 42.4857 46.3189V45.8323H45.5033V49.094H45.9966L45.8806 50.7531H45.126V49.8948H42.5437L42.4857 50.7531H41.6442V50.7818ZM44.6039 46.6623H43.3853V47.0627C43.3853 47.8352 43.2689 48.5216 43.0081 49.094H44.6039V46.6623Z" fill="#009AC8"/>
<path d="M47.1872 45.8611H50.1468V49.9524H49.2474V46.6907H48.0577V47.0058C48.0577 47.8066 47.9995 48.4073 47.9124 48.8651C47.8253 49.2943 47.6804 49.609 47.4773 49.7809C47.3031 49.9524 47.0419 50.0381 46.6939 50.0381C46.5197 50.0381 46.3455 50.0094 46.2295 49.9811L46.2873 49.2372C46.3455 49.2372 46.4037 49.2372 46.4326 49.2372C46.5775 49.2372 46.6646 49.2085 46.7517 49.1511C46.8388 49.0941 46.9259 48.9796 46.9841 48.8081C47.0707 48.6362 47.1001 48.3789 47.129 48.0355C47.1578 47.6921 47.1872 47.263 47.1872 46.7194V45.8611Z" fill="#009AC8"/>
<path d="M54.413 45.861V49.9523H53.5131V48.6361H52.7878L51.8884 49.9523H50.8147L51.8301 48.4929C51.2498 48.2644 50.9307 47.8635 50.9307 47.2059C50.9307 46.7767 51.076 46.4616 51.3369 46.2044C51.6271 45.9755 52.0043 45.8323 52.4687 45.8323H54.413V45.861ZM52.5847 47.8352H53.5131V46.6623H52.6136C52.3816 46.6623 52.2074 46.7193 52.0914 46.805C51.9755 46.9195 51.8884 47.0627 51.8884 47.2342C51.8884 47.4061 51.9461 47.5489 52.0626 47.6633C52.1785 47.7778 52.3527 47.8352 52.5847 47.8352Z" fill="#009AC8"/>
<path d="M57.17 49.9235V45.8323H58.0695V47.6063L59.7524 45.8323H60.8554L59.1721 47.5489L60.9421 49.8948H59.8395L58.5628 48.1499L58.0984 48.6361V49.8948H57.17V49.9235Z" fill="#009AC8"/>
<path d="M62.0451 45.8611H65.0052V49.9524H64.1053V46.6907H62.9157V47.0058C62.9157 47.8066 62.8579 48.4073 62.7708 48.8651C62.6837 49.2943 62.5384 49.609 62.3353 49.7809C62.1615 49.9524 61.9002 50.0381 61.5519 50.0381C61.3781 50.0381 61.2039 50.0094 61.0879 49.9811L61.1457 49.2372C61.2039 49.2372 61.2617 49.2372 61.291 49.2372C61.4359 49.2372 61.523 49.2085 61.6101 49.1511C61.6972 49.0941 61.7843 48.9796 61.842 48.8081C61.9291 48.6362 61.9585 48.3789 61.9874 48.0355C62.0162 47.6921 62.0451 47.263 62.0451 46.7194V45.8611Z" fill="#009AC8"/>
<path d="M69.5611 45.8611V49.9524H68.6617V47.2917L66.8628 49.9524H65.9922V45.8611H66.8916V48.5217L68.7199 45.8611H69.5611Z" fill="#009AC8"/>
<path d="M70.5482 49.9235V45.8323H71.4481V47.4344H73.131V45.8323H74.0305V49.9235H73.131V48.2927H71.4481V49.9235H70.5482Z" fill="#009AC8"/>
<path d="M78.5865 45.8611V49.9524H77.6871V47.2917L75.8881 49.9524H75.0176V45.8611H75.917V48.5217L77.7453 45.8611H78.5865Z" fill="#009AC8"/>
<path d="M79.5741 49.9235V45.8323H80.4735V47.4344H82.1565V45.8323H83.0559V49.9235H82.1565V48.2927H80.4735V49.9235H79.5741Z" fill="#009AC8"/>
<path d="M85.0004 46.6623V49.9235H84.101V45.8323H87.0024V46.6335H85.0004V46.6623Z" fill="#009AC8"/>
<path d="M86.6547 49.9235L88.4247 45.804H89.2659L91.036 49.9235H90.0787L89.7014 49.0082H87.9603L87.583 49.9235H86.6547ZM88.3083 48.2357H89.4112L88.8598 46.9195L88.3083 48.2357Z" fill="#009AC8"/>
</g>
</svg>
