<svg width="9" height="11" viewBox="0 0 9 11" fill="none" xmlns="http://www.w3.org/2000/svg">
<path fill-rule="evenodd" clip-rule="evenodd" d="M4.2 0C4.38565 0 4.5637 0.0737498 4.69497 0.205025C4.82625 0.336301 4.9 0.514348 4.9 0.7V10.0338C4.9 10.2195 4.82625 10.3975 4.69497 10.5288C4.5637 10.6601 4.38565 10.7338 4.2 10.7338C4.01435 10.7338 3.8363 10.6601 3.70503 10.5288C3.57375 10.3975 3.5 10.2195 3.5 10.0338V0.7C3.5 0.514348 3.57375 0.336301 3.70503 0.205025C3.8363 0.0737498 4.01435 0 4.2 0ZM7.7 3.5C7.88565 3.5 8.0637 3.57375 8.19497 3.70503C8.32625 3.8363 8.4 4.01435 8.4 4.2V10.0338C8.4 10.2195 8.32625 10.3975 8.19497 10.5288C8.0637 10.6601 7.88565 10.7338 7.7 10.7338C7.51435 10.7338 7.3363 10.6601 7.20503 10.5288C7.07375 10.3975 7 10.2195 7 10.0338V4.2C7 4.01435 7.07375 3.8363 7.20503 3.70503C7.3363 3.57375 7.51435 3.5 7.7 3.5ZM1.4 6.5338C1.4 6.34815 1.32625 6.1701 1.19497 6.03883C1.0637 5.90755 0.885652 5.8338 0.7 5.8338C0.514348 5.8338 0.336301 5.90755 0.205025 6.03883C0.0737499 6.1701 0 6.34815 0 6.5338V10.0338C0 10.2195 0.0737499 10.3975 0.205025 10.5288C0.336301 10.6601 0.514348 10.7338 0.7 10.7338C0.885652 10.7338 1.0637 10.6601 1.19497 10.5288C1.32625 10.3975 1.4 10.2195 1.4 10.0338V6.5338Z" fill="#232B46"/>
</svg>
