<svg width="18" height="12" viewBox="0 0 18 12" fill="none" xmlns="http://www.w3.org/2000/svg">
<path d="M9 3.5C10.3739 3.5 11.5 4.62614 11.5 6C11.5 7.37386 10.3739 8.5 9 8.5C7.62614 8.5 6.5 7.37386 6.5 6C6.5 4.62614 7.62614 3.5 9 3.5Z" stroke="#009AC8"/>
<path d="M9.03249 0.5C12.3775 0.5 15.5369 2.53593 17.4327 6.00669C15.9289 8.73252 13.6863 10.5023 11.261 11.1833C8.77534 11.8812 6.06287 11.4466 3.68516 9.66974C2.4345 8.66747 1.36201 7.46842 0.566251 6.00856C2.46106 2.53833 5.62159 0.5 9.03249 0.5Z" stroke="#009AC8"/>
</svg>
