<svg width="454" height="454" viewBox="0 0 454 454" fill="none" xmlns="http://www.w3.org/2000/svg">
<path fill-rule="evenodd" clip-rule="evenodd" d="M445.33 289.349C450.977 269.539 454 248.622 454 227C454 209.96 452.122 193.358 448.563 177.39H370.326V251.384C370.326 264.402 372.716 275.021 377.837 282.901C382.614 290.781 392.515 294.548 407.532 294.548C414.701 294.548 422.212 293.864 429.721 292.837C435.193 292.087 440.484 290.792 445.33 289.349ZM419.841 346.814C379.772 411.168 308.388 454 227 454C101.631 454 0 352.369 0 227C0 101.631 101.631 0 227 0C315.813 0 392.714 51.0042 430.009 125.319H370.326V56.4619H303.766V56.8043C302.058 83.8689 279.19 105.449 251.54 105.449H251.198V158.205H303.766V252.413C303.766 266.458 305.132 279.817 307.861 291.466C310.593 303.113 315.712 313.047 322.881 321.613C330.05 330.176 339.606 336.341 351.555 341.138C363.501 345.591 378.519 347.99 396.61 347.99C405.184 347.99 412.903 347.623 419.841 346.814Z" fill="#FFC558"/>
</svg>
