<svg width="127" height="127" viewBox="0 0 127 127" fill="none" xmlns="http://www.w3.org/2000/svg">
<path fill-rule="evenodd" clip-rule="evenodd" d="M63.5 127C98.5701 127 127 98.5701 127 63.5C127 51.8886 123.883 41.0051 118.441 31.6403H98.0828V51.0006C98.0828 54.4067 98.7065 57.185 100.043 59.2467C101.289 61.3085 103.872 62.2942 107.791 62.2942C109.661 62.2942 111.621 62.115 113.58 61.8463C115.539 61.5772 117.41 61.0394 119.013 60.5015L121.418 73.3191C119.28 74.126 116.965 74.843 114.382 75.3808C111.799 76.0082 108.682 76.2769 104.941 76.2769C100.221 76.2769 96.3019 75.6491 93.185 74.4843C90.0672 73.2291 87.5739 71.616 85.7034 69.3755C83.8329 67.1342 82.4972 64.5351 81.7844 61.4876C81.0723 58.4398 80.7159 54.9445 80.7159 51.2697V26.6207H67V12.8171H67.0892C73.5443 12.8171 79.0006 8.29677 80.3968 2.27267C75.0168 0.791283 69.3508 0 63.5 0C28.4299 0 0 28.4299 0 63.5C0 98.5701 28.4299 127 63.5 127ZM98.0828 10.2344V18.0162H107.811C104.837 15.1178 101.579 12.5087 98.0828 10.2344Z" fill="#FFC558"/>
</svg>
